<svg width="24" height="24" viewBox="0 0 24 24" fill="none" xmlns="http://www.w3.org/2000/svg">
<g clip-path="url(#clip0_306_9051)">
<path d="M9.97443 18.8435L13.715 22.5789C13.9472 22.8111 14.2349 22.9802 14.5508 23.0699C14.8667 23.1597 15.2003 23.1672 15.5199 23.0918C15.8395 23.0164 16.1346 22.8606 16.377 22.6391C16.6195 22.4176 16.8013 22.1379 16.9053 21.8264L23.0441 3.39265C23.1575 3.05333 23.1741 2.68914 23.092 2.34092C23.01 1.99271 22.8325 1.67425 22.5795 1.42128C22.3265 1.16831 22.0081 0.990836 21.6599 0.908764C21.3117 0.826693 20.9475 0.843274 20.6081 0.956648L2.17443 7.10065C1.8639 7.20499 1.58511 7.38679 1.36438 7.62885C1.14365 7.87092 0.988288 8.16526 0.912961 8.48407C0.837633 8.80288 0.844832 9.13564 0.933876 9.45089C1.02292 9.76615 1.19087 10.0535 1.42186 10.2858L6.12071 14.9898L5.96129 20.9298L9.97443 18.8435Z" stroke="black" stroke-width="1.71429" stroke-linecap="round" stroke-linejoin="round"/>
<path d="M22.4923 1.34058L6.11914 14.9897" stroke="black" stroke-width="1.71429" stroke-linecap="round" stroke-linejoin="round"/>
</g>
<defs>
<clipPath id="clip0_306_9051">
<rect width="24" height="24" fill="white"/>
</clipPath>
</defs>
</svg>
