<svg width="386" height="345" viewBox="0 0 386 345" fill="none" xmlns="http://www.w3.org/2000/svg">
<path d="M21.6092 291.792C10.8797 232.083 -46.9691 123.246 86.952 48.4737C220.873 -26.2983 348.912 -3.46807 379.712 42.5825C410.513 88.6331 325.074 227.645 191.153 302.417C57.2319 377.189 52.4099 337.843 21.6092 291.792Z" fill="#67B8AF" fill-opacity="0.07"/>
<path d="M265.53 176.171C253.634 165.56 223.214 152.191 208.546 145.522C204.148 153.553 186.383 155.524 176.332 153.196C171.309 157.311 167.671 162.735 165.869 168.793C168.549 172.076 166.725 183.804 166.268 192.329C167.967 199.139 170.333 205.782 173.336 212.173C167.595 206.73 161.605 201.395 156.782 197.356C136.592 187.356 141.162 189.542 133.868 186.003C132.963 186.499 132.094 187.052 131.266 187.656C127.137 190.632 123.854 194.536 121.715 199.017C119.576 203.496 118.648 208.409 119.015 213.312C121.899 215.32 160.663 239.026 176.831 247.794C195.958 258.117 208.55 251.293 209.528 235.169C210.009 226.791 210.969 187.605 211.016 185.359C216.161 189.993 232.066 200.753 239.393 202.044C239.188 206.801 236.615 246.85 236.436 249.437C245.748 256.055 262.404 257.053 269.679 253.392C270.924 243.023 273.154 205.888 273.052 193.441C272.999 187.242 272.571 182.445 265.53 176.171Z" fill="#67B8AF"/>
<path d="M255.267 47.8807C252.16 48.6431 252.267 56.6751 252.417 59.7378C255.947 59.1519 259.575 59.4166 262.965 60.5078C260.768 52.7642 257.672 47.4694 255.267 47.8807Z" fill="#67B8AF"/>
<path d="M265.463 73.8444C262.691 75.9814 259.407 77.4344 255.903 78.0734C256.851 80.9322 259.716 88.5946 262.834 88.2435C265.225 87.8329 266.185 81.851 265.463 73.8444Z" fill="#67B8AF"/>
<path d="M240.256 64.5545L222.027 67.667C220.466 70.6547 221.307 76.5467 223.472 79.5897C224.813 78.5398 227.941 78.09 230.487 77.7026C232.6 77.4012 233.068 78.008 233.464 79.1238C233.543 79.3406 233.589 79.5592 233.669 79.8076C235.177 78.8436 238.347 77.637 239.566 78.1376L242.688 77.5933C239.788 75.1575 238.453 67.9655 240.256 64.5545Z" fill="#67B8AF"/>
<path d="M151.392 278.709L141.095 272.625C139.939 271.945 139.116 270.857 138.806 269.601C138.497 268.343 138.727 267.02 139.445 265.922C140.164 264.825 141.312 264.042 142.638 263.746C143.963 263.451 145.357 263.667 146.513 264.346L148.097 265.273L149.076 263.769C149.794 262.672 150.942 261.889 152.267 261.594C153.592 261.3 154.986 261.515 156.141 262.195C157.296 262.875 158.119 263.963 158.427 265.219C158.736 266.476 158.506 267.799 157.787 268.895L151.392 278.709Z" fill="#67B8AF"/>
<path d="M103.357 97.013C107.754 96.7802 111.126 93.2101 110.888 89.0391C110.65 84.8681 106.893 81.6756 102.496 81.9084C98.0988 82.1412 94.7269 85.7112 94.9646 89.8822C95.2024 94.0532 98.9597 97.2458 103.357 97.013Z" fill="#FEB684"/>
<path d="M259.293 255.278C252.525 255.478 245.816 254.076 239.768 251.2C238.303 256.425 235.18 259.994 234.131 262.605C239.893 272.65 261.408 288.895 273.667 295.055C271.902 276.699 259.385 268.779 259.293 255.278Z" fill="#FEB684"/>
<path d="M124.554 182.9C126.308 183.881 128.353 185.889 131.158 187.793C127.848 190.213 125.074 193.227 122.996 196.665C120.918 200.105 119.577 203.898 119.05 207.827C109.396 209.57 99.1891 215.638 84.0363 214.451C88.6224 205.459 113.145 186.568 124.554 182.9Z" fill="#FEB684"/>
<path d="M169.717 203.634C170.737 206.357 171.932 209.229 173.301 212.218C167.564 206.809 161.574 201.445 156.749 197.346C162.191 200.024 166.983 202.367 169.717 203.634Z" fill="#FEB684"/>
<path d="M211.02 185.351C210.917 188.799 210.837 192.655 210.733 196.668C212.987 197.085 228.94 200.156 236.676 201.578C227.434 197.22 218.814 191.768 211.02 185.351Z" fill="#FEB684"/>
<path d="M207.578 134.907C209.392 139.352 211.47 143.695 213.799 147.917C212.128 147.154 210.424 146.393 208.652 145.604C208.357 141.583 207.989 138.039 207.578 134.907Z" fill="#FEB684"/>
<path d="M132.216 165.498C130.95 167.869 130.775 169.993 131.839 171.166C132.937 172.339 134.822 172.712 138.541 171.411C136.086 169.805 133.945 167.803 132.216 165.498Z" fill="#FEB684"/>
<path d="M155.45 155.581C155.858 156.167 156.027 156.875 155.926 157.571C155.825 158.268 155.46 158.906 154.9 159.367C152.628 157.467 150.53 155.684 148.739 154.044C152.531 153.366 154.216 154.314 155.45 155.581Z" fill="#FEB684"/>
<path d="M163.312 127.636C161.939 130.811 160.394 133.917 158.684 136.942C155.954 134.594 153.546 132.636 151.917 131.484C156.454 129.925 160.858 128.429 163.312 127.636Z" fill="#FEB684"/>
<path d="M216.657 106.621C213.474 107.421 211.192 108.836 211.36 110.027C211.46 111.784 217.231 111.997 217.463 112.008C217.299 110.88 216.985 108.877 216.657 106.621Z" fill="#FEB684"/>
<path d="M241.976 106.547C241.972 107.62 239.784 108.967 236.118 110.045C235.923 108.951 235.331 106.741 234.739 104.53C239.835 104.608 241.981 105.441 241.976 106.547Z" fill="#FEB684"/>
<path d="M240.907 93.3713C239.662 94.2166 238.247 94.8071 236.75 95.1057C234.252 95.6166 232.413 93.6949 235.977 91.4556C233.32 92.0944 231.045 90.1078 234.823 87.5417C234.507 87.5548 234.19 87.5183 233.885 87.4336C233.135 88.2621 231.576 87.7452 229.81 82.444C230.556 84.6567 230.713 87.011 230.267 89.2972C230.596 92.6595 231.76 95.8985 233.666 98.7476C233.742 98.891 233.839 99.0239 233.954 99.1425C236.801 98.3583 239.511 97.1838 242.002 95.6562C241.561 94.9293 241.194 94.1642 240.907 93.3713Z" fill="#FEB684"/>
<path d="M208.611 64.0583C214.14 61.8084 211.284 55.4884 207.195 54.3792C211.133 52.2451 209.527 45.6695 204.465 46.19C207.112 42.4197 204.534 37.4739 198.706 38.5717C199.207 33.9364 195.717 31.0874 190.595 33.4769C190.434 28.3085 183.713 26.4231 180.982 30.0401C179.469 25.0063 173.386 23.4643 169.157 28.6725C167.639 23.5443 158.932 23.8475 158.433 29.114C154.496 24.8367 146.546 27.8179 147.4 32.8864C142.113 28.2736 135.616 33.9839 136.381 39.2849C131.014 36.7911 126.592 43.8753 129.007 48.1983C122.457 49.4606 121.371 55.5806 125.829 58.9996C119.743 61.4053 120.966 67.0858 125.164 69.5151C120.595 72.8505 122.106 78.9261 127.793 79.4457C123.991 83.9667 128.704 90.7615 134.188 89.461C131.38 94.5026 135.901 99.6612 141.286 97.2261C140.885 98.4981 140.99 99.8642 141.579 101.066C142.169 102.268 143.202 103.223 144.485 103.751C148.356 102.188 157.553 98.3236 157.553 98.3236C168.141 93.754 170.286 85.8434 171.915 77.6445C165.806 76.1404 168.102 70.3019 171.247 72.3451C174.254 74.3009 173.163 71.5176 172.692 68.5121C176.488 67.2367 180.426 66.382 184.427 65.9652C190.141 79.7398 189.695 86.64 183.702 86.6998C180.805 86.4629 177.996 85.6492 175.456 84.312C176.393 86.2323 177.712 87.9624 179.341 89.4079C179.527 92.676 182.197 96.6881 187.516 99.1412L189.43 100.018C190.353 100.443 191.378 100.925 192.441 101.469C193.624 101.113 194.62 100.34 195.224 99.3103C195.827 98.2803 195.993 97.0712 195.686 95.9307C196.762 96.5222 198.006 96.7787 199.243 96.664C200.482 96.5492 201.651 96.0692 202.589 95.2911C203.525 94.5132 204.181 93.4765 204.464 92.3272C204.749 91.1777 204.645 89.9735 204.17 88.8841C209.939 88.5155 210.358 82.4325 207.107 79.7004C211.921 78.3407 211.46 73.7563 207.771 72.0892C212.206 70.497 212.168 65.7325 208.611 64.0583Z" fill="#FEB684"/>
<path d="M237.375 234.51L208.462 240.962" stroke="black" stroke-width="1.125" stroke-linecap="round" stroke-linejoin="round"/>
<path d="M261.055 87.666L293.881 221.93L271.875 226.851" stroke="black" stroke-width="1.125" stroke-linecap="round" stroke-linejoin="round"/>
<path d="M206.18 81.6283L216.704 79.2612" stroke="black" stroke-width="1.125" stroke-linecap="round" stroke-linejoin="round"/>
<path d="M104.166 127.823L98.7036 105.569L135.726 97.3283" stroke="black" stroke-width="1.125" stroke-linecap="round" stroke-linejoin="round"/>
<path d="M118.284 185.719L109.394 149.304" stroke="black" stroke-width="1.125" stroke-linecap="round" stroke-linejoin="round"/>
<path d="M177.148 248.008L135.806 257.206L126.143 217.876" stroke="black" stroke-width="1.125" stroke-linecap="round" stroke-linejoin="round"/>
<path d="M329.951 299.694L267.33 44.4183C266.65 41.6351 265.399 39.0073 263.645 36.6856C261.893 34.3637 259.675 32.3933 257.117 30.8873C254.559 29.3813 251.712 28.3693 248.739 27.909C245.768 27.4487 242.727 27.5492 239.794 28.2049L198.749 37.3238M132.053 310.172L107.668 211.076M123.122 54.126L94.2382 60.543C91.302 61.1927 88.5286 62.3849 86.0765 64.051C83.6242 65.7172 81.5413 67.825 79.9466 70.2538C78.3521 72.6827 77.2769 75.385 76.783 78.2063C76.2888 81.0277 76.3855 83.9127 77.0672 86.6967L77.069 86.7282L103.787 195.302" stroke="black" stroke-width="1.125" stroke-linecap="round" stroke-linejoin="round"/>
<path d="M313.859 105.969C318.512 105.723 322.081 101.944 321.83 97.5301C321.578 93.1158 317.601 89.737 312.948 89.9833C308.295 90.2297 304.726 94.008 304.977 98.4223C305.229 102.837 309.206 106.215 313.859 105.969Z" stroke="black" stroke-width="1.125" stroke-linecap="round" stroke-linejoin="round"/>
<path d="M68.8355 38.3102C73.4886 38.0639 77.0577 34.2855 76.8061 29.8712C76.5544 25.4569 72.5773 22.0781 67.9242 22.3244C63.2712 22.5708 59.7021 26.3491 59.9538 30.7634C60.2054 35.1777 64.1825 38.5565 68.8355 38.3102Z" stroke="black" stroke-width="1.125" stroke-linecap="round" stroke-linejoin="round"/>
<path d="M339.093 38.5237C338.223 37.997 337.169 37.8177 336.157 38.0249C335.148 38.232 334.265 38.8088 333.699 39.6301L332.93 40.7441C332.93 40.7441 331.661 39.9905 331.621 39.9611C330.734 39.4784 329.681 39.3467 328.689 39.5944C327.698 39.842 326.848 40.449 326.325 41.2847C325.8 42.1203 325.641 43.1175 325.886 44.061C326.129 45.0045 326.753 45.8189 327.625 46.3284L335.441 50.9338L340.309 43.5102C340.827 42.69 340.988 41.7125 340.762 40.7827C340.535 39.8528 339.937 39.0433 339.093 38.5237Z" stroke="black" stroke-width="1.125" stroke-linecap="round" stroke-linejoin="round"/>
<path d="M185.293 267.291C185.939 265.815 186.079 264.185 185.693 262.63C185.433 260.821 184.602 259.131 183.31 257.78C182.018 256.43 180.324 255.481 178.452 255.062C176.58 254.643 174.617 254.77 172.82 255.428C171.024 256.087 169.479 257.243 168.387 258.75C167.296 260.255 166.71 262.039 166.706 263.865C166.702 265.689 167.28 267.473 168.364 268.979C169.449 270.486 170.989 271.646 172.782 272.305C174.576 272.964 176.538 273.093 178.412 272.675C180.318 272.252 182.056 271.316 183.417 269.979L187.645 270.608L185.293 267.291Z" stroke="black" stroke-width="1.125" stroke-linecap="round" stroke-linejoin="round"/>
<path d="M283.325 250.844L290.102 242.468L300.049 247.118L296.108 231.103L279.385 234.829L283.325 250.844Z" stroke="black" stroke-width="1.125" stroke-linecap="round" stroke-linejoin="round"/>
<path d="M115.304 86.7099L126.368 84.241" stroke="black" stroke-width="1.125" stroke-linecap="round" stroke-linejoin="round"/>
<path d="M48.4855 206.581C50.7757 206.46 52.5319 204.601 52.408 202.428C52.2841 200.255 50.3272 198.593 48.037 198.714C45.7468 198.835 43.9906 200.694 44.1145 202.867C44.2384 205.04 46.1953 206.703 48.4855 206.581Z" stroke="black" stroke-width="1.125" stroke-linecap="round" stroke-linejoin="round"/>
<path d="M73.0336 201.091C75.3238 200.97 77.0799 199.111 76.9561 196.938C76.8322 194.765 74.8753 193.103 72.5851 193.224C70.2949 193.345 68.5387 195.204 68.6626 197.377C68.7865 199.55 70.7433 201.212 73.0336 201.091Z" stroke="black" stroke-width="1.125" stroke-linecap="round" stroke-linejoin="round"/>
<path d="M52.2792 201.738L68.7591 198.071" stroke="black" stroke-width="1.125" stroke-linecap="round" stroke-linejoin="round"/>
<path d="M44.1365 99.8907L48.7969 118.969" stroke="black" stroke-width="1.125" stroke-linecap="round" stroke-linejoin="round"/>
<path d="M56.5659 107.196L36.4025 111.693" stroke="black" stroke-width="1.125" stroke-linecap="round" stroke-linejoin="round"/>
<path d="M328.993 158.336L337.155 191.826" stroke="black" stroke-width="1.125" stroke-linecap="round" stroke-linejoin="round"/>
<path d="M350.79 171.158L315.363 179.036" stroke="black" stroke-width="1.125" stroke-linecap="round" stroke-linejoin="round"/>
<path d="M236.11 110.015C235.714 107.703 233.447 100.415 233.647 98.6972" stroke="black" stroke-width="1.125" stroke-linecap="round" stroke-linejoin="round"/>
<path d="M230.309 89.5725C230.791 92.9702 232.032 96.2299 233.949 99.1341C236.803 98.3633 239.518 97.1871 242.003 95.6457C241.558 94.9346 241.192 94.1817 240.91 93.3991" stroke="black" stroke-width="1.125" stroke-linecap="round" stroke-linejoin="round"/>
<path d="M265.497 73.8535C266.218 81.856 265.231 87.843 262.865 88.2457C259.843 88.7611 255.701 80.1434 253.607 68.9975C251.512 57.8515 252.268 48.3883 255.292 47.8761C257.691 47.4684 260.779 52.7564 262.978 60.4913" stroke="black" stroke-width="1.125" stroke-linecap="round" stroke-linejoin="round"/>
<path d="M242.699 77.5728C239.811 75.1409 238.475 67.9603 240.269 64.5545" stroke="black" stroke-width="1.125" stroke-linecap="round" stroke-linejoin="round"/>
<path d="M223.454 79.5913C221.296 76.5534 220.466 70.6707 222.017 67.6878" stroke="black" stroke-width="1.125" stroke-linecap="round" stroke-linejoin="round"/>
<path d="M252.436 59.7158C260.782 58.485 268.199 61.3725 269.116 66.3746C270.033 71.3766 264.172 76.5133 255.879 78.0884" stroke="black" stroke-width="1.125" stroke-linecap="round" stroke-linejoin="round"/>
<path d="M239.566 78.0912L242.697 77.5462L261.365 87.8997" stroke="black" stroke-width="1.125" stroke-linecap="round" stroke-linejoin="round"/>
<path d="M254.01 48.7124L240.27 64.5621L220.591 67.9089C211.954 69.3765 213.391 81.7404 222.172 81.0545" stroke="black" stroke-width="1.125" stroke-linecap="round" stroke-linejoin="round"/>
<path d="M216.664 106.6C213.445 107.404 211.195 108.822 211.361 109.986C211.581 111.526 215.844 112.684 227.307 111.61C236.054 110.791 241.986 108.33 241.973 106.523C241.964 105.445 239.797 104.58 234.73 104.5" stroke="black" stroke-width="1.125" stroke-linecap="round" stroke-linejoin="round"/>
<path d="M154.885 159.403C155.447 158.943 155.813 158.304 155.915 157.607C156.016 156.909 155.845 156.201 155.435 155.616C153.777 153.418 148.336 152.634 140.332 157.521C132.929 162.04 129.572 168.717 131.858 171.201C132.932 172.369 134.842 172.748 138.563 171.446" stroke="black" stroke-width="1.125" stroke-linecap="round" stroke-linejoin="round"/>
<path d="M148.705 154.032C152.805 157.788 158.414 162.244 164.432 167.169C165.401 168.029 166.152 169.088 166.628 170.264C167.103 171.441 167.291 172.706 167.177 173.961C167.135 176.739 166.191 192.809 166.022 195.089C165.785 197.938 162.435 199.63 161.485 178.994" stroke="black" stroke-width="1.125" stroke-linecap="round" stroke-linejoin="round"/>
<path d="M132.216 165.456C134.046 168.004 136.423 170.154 139.192 171.767C141.96 173.379 145.058 174.419 148.282 174.815" stroke="black" stroke-width="1.125" stroke-linecap="round" stroke-linejoin="round"/>
<path d="M148.808 173.277C148.643 173.885 147.718 176.299 147.602 176.66" stroke="black" stroke-width="1.125" stroke-linecap="round" stroke-linejoin="round"/>
<path d="M143.166 173.632C143.079 176.194 143.824 179.342 146.471 180.813C149.736 182.635 151.043 181.613 153.918 174.831" stroke="black" stroke-width="1.125" stroke-linecap="round" stroke-linejoin="round"/>
<path d="M150.381 181.008C154.216 182.889 155.835 182.108 158.589 174.954" stroke="black" stroke-width="1.125" stroke-linecap="round" stroke-linejoin="round"/>
<path d="M155.06 181.26C158.548 182.903 160.517 182.423 163.251 174.922" stroke="black" stroke-width="1.125" stroke-linecap="round" stroke-linejoin="round"/>
<path d="M152.69 170.474C156.26 170.243 159.841 170.22 163.414 170.405" stroke="black" stroke-width="1.125" stroke-linecap="round" stroke-linejoin="round"/>
<path d="M131.214 131.899C136.892 136.961 152.241 152.371 155.452 155.578" stroke="black" stroke-width="1.125" stroke-linecap="round" stroke-linejoin="round"/>
<path d="M136.604 136.99C140.089 135.604 157.328 129.565 163.313 127.635C161.928 130.808 160.374 133.927 158.682 136.959" stroke="black" stroke-width="1.125" stroke-linecap="round" stroke-linejoin="round"/>
<path d="M166.226 192.243C168.211 200.081 171.024 207.707 174.623 215.006" stroke="black" stroke-width="1.125" stroke-linecap="round" stroke-linejoin="round"/>
<path d="M151.922 131.501C156.908 134.99 168.971 145.992 176.371 153.328C171.353 157.402 167.725 162.799 165.951 168.833" stroke="black" stroke-width="1.125" stroke-linecap="round" stroke-linejoin="round"/>
<path d="M123.605 163.61C122.564 157.033 135.341 144.672 146.402 146.613" stroke="black" stroke-width="1.125" stroke-linecap="round" stroke-linejoin="round"/>
<path d="M217.539 111.999C217.288 109.931 216.375 104.995 216.038 100.818C215.474 93.845 215.902 92.0858 217.603 88.6155C219.143 85.4413 221.071 82.449 223.344 79.7C224.59 78.5466 227.872 78.0805 230.51 77.7117C232.621 77.4173 233.068 78.0129 233.483 79.1315C234.131 81.3216 234.474 83.5838 234.498 85.8596C234.538 87.7817 232.417 90.1652 229.883 82.4516C231.211 87.0813 230.946 91.1944 227.177 93.8843" stroke="black" stroke-width="1.125" stroke-linecap="round" stroke-linejoin="round"/>
<path d="M240.428 85.3493C242.221 85.8544 242.369 88.1437 240.593 89.4146C239.217 90.3859 237.647 91.0816 235.979 91.4591C233.313 92.079 231.043 90.1098 234.824 87.541" stroke="black" stroke-width="1.125" stroke-linecap="round" stroke-linejoin="round"/>
<path d="M240.58 89.4068C240.98 89.5652 241.324 89.825 241.578 90.1574C241.829 90.4898 241.981 90.8822 242.015 91.2914C242.049 91.7006 241.964 92.1109 241.768 92.4773C241.571 92.8438 241.273 93.1521 240.906 93.3686C239.661 94.2165 238.244 94.8079 236.744 95.1047C234.241 95.6096 232.403 93.6925 235.97 91.4509" stroke="black" stroke-width="1.125" stroke-linecap="round" stroke-linejoin="round"/>
<path d="M233.793 79.7473C235.247 78.819 236.915 78.2348 238.655 78.0441C241.101 77.7766 241.48 80.8858 239.175 81.9003C237.679 82.6387 236.066 83.14 234.4 83.3845" stroke="black" stroke-width="1.125" stroke-linecap="round" stroke-linejoin="round"/>
<path d="M239.908 81.4059C241.706 82.0053 241.842 84.3975 239.986 85.6956C239.058 86.3446 236.118 87.8944 234.028 87.4318" stroke="black" stroke-width="1.125" stroke-linecap="round" stroke-linejoin="round"/>
<path d="M194.548 107.248C200.325 111.831 206.498 115.793 208.692 145.545C271.224 173.489 272.971 180.241 273.091 193.418C273.204 205.902 270.911 243.808 269.68 253.273C262.446 256.936 245.84 255.923 236.493 249.322C237.081 239.829 239.316 205.552 239.447 202.021C233.775 201.029 213.381 197.094 210.829 196.63" stroke="black" stroke-width="1.125" stroke-linecap="round" stroke-linejoin="round"/>
<path d="M237.162 238.299C243.496 244.267 261.15 246.624 270.703 242.411" stroke="black" stroke-width="1.125" stroke-linecap="round" stroke-linejoin="round"/>
<path d="M211.28 173.448C210.984 182.269 210.11 224.334 209.442 235.199C208.45 251.319 195.864 258.166 176.75 247.821C160.632 239.096 122.884 215.947 118.975 213.345C118.579 207.944 119.754 202.542 122.373 197.726C124.992 192.912 128.953 188.869 133.825 186.04C144.33 191.103 163.073 200.561 169.702 203.581" stroke="black" stroke-width="1.125" stroke-linecap="round" stroke-linejoin="round"/>
<path d="M127.626 218.806C126.985 209.313 133.491 195.119 143.834 191.069" stroke="black" stroke-width="1.125" stroke-linecap="round" stroke-linejoin="round"/>
<path d="M176.393 153.305C187.269 155.959 204.556 153.046 208.664 145.637" stroke="black" stroke-width="1.125" stroke-linecap="round" stroke-linejoin="round"/>
<path d="M181.024 154.063C169.689 172.236 175.163 199.425 183.021 228.191C163.061 217.542 137.66 204.786 132.392 201.658" stroke="black" stroke-width="1.125" stroke-linecap="round" stroke-linejoin="round"/>
<path d="M239.771 251.233C238.34 256.457 235.184 260.027 234.135 262.638C239.895 272.651 261.444 288.897 273.67 295.065C271.841 276.396 258.868 267.639 259.298 255.342" stroke="black" stroke-width="1.125" stroke-linecap="round" stroke-linejoin="round"/>
<path d="M131.158 187.796C128.355 185.923 126.31 183.915 124.554 182.902C113.146 186.57 88.6231 205.462 84.0405 214.422C99.1884 215.615 109.43 209.572 119.054 207.798" stroke="black" stroke-width="1.125" stroke-linecap="round" stroke-linejoin="round"/>
<path d="M241.935 106.543C245.009 153.316 244.394 158.175 240.743 160.668" stroke="black" stroke-width="1.125" stroke-linecap="round" stroke-linejoin="round"/>
<path d="M211.357 110.022C213.125 117.243 217.459 137 218.863 141.907" stroke="black" stroke-width="1.125" stroke-linecap="round" stroke-linejoin="round"/>
<path d="M214.072 121.627C222.114 124.309 238.725 122.855 242.681 117.435" stroke="black" stroke-width="1.125" stroke-linecap="round" stroke-linejoin="round"/>
<path d="M211.056 185.352C218.843 191.777 227.465 197.231 236.712 201.582" stroke="black" stroke-width="1.125" stroke-linecap="round" stroke-linejoin="round"/>
<path d="M156.749 197.347C161.535 201.449 167.567 206.779 173.301 212.219" stroke="black" stroke-width="1.125" stroke-linecap="round" stroke-linejoin="round"/>
<path d="M207.576 134.876C209.385 139.323 211.461 143.667 213.797 147.887" stroke="black" stroke-width="1.125" stroke-linecap="round" stroke-linejoin="round"/>
<path d="M179.082 85.7552C177.847 85.3189 176.641 84.8127 175.469 84.2396C176.416 86.147 177.726 87.8712 179.335 89.3251" stroke="black" stroke-width="1.125" stroke-linecap="round" stroke-linejoin="round"/>
<path d="M131.75 171.005C119.312 159.89 113.102 153.065 106.909 146.553C96.9975 136.125 102.025 126.859 113.648 118.83C125.78 110.451 143.299 104.403 157.497 98.2637C168.081 93.6864 170.196 85.7862 171.891 77.5843C165.783 76.0802 168.072 70.2524 171.223 72.2852C174.222 74.218 173.101 71.4282 172.669 68.4525C176.47 67.1948 180.405 66.3407 184.403 65.9058C191.329 82.6705 189.181 89.2666 179.013 85.7331C178.825 93.7173 183.147 97.0918 187.458 99.0748C193.712 101.963 204.195 106.648 213.123 117.917" stroke="black" stroke-width="1.125" stroke-linecap="round" stroke-linejoin="round"/>
<path d="M155.705 99.0404C165.942 101.658 180.113 109.155 187.598 114.193C188.93 109.55 189.542 104.749 189.415 99.9407" stroke="black" stroke-width="1.125" stroke-linecap="round" stroke-linejoin="round"/>
<path d="M144.52 103.749C143.241 103.219 142.211 102.265 141.622 101.065C141.033 99.8655 140.926 98.5023 141.321 97.2313C135.936 99.663 131.417 94.5358 134.223 89.4661C128.74 90.7666 124.027 83.9767 127.83 79.4822C122.142 78.931 120.622 72.8559 125.199 69.52C121.001 67.084 119.779 61.4101 125.864 59.0045C121.41 55.5852 122.492 49.4604 129.042 48.2031C126.633 43.8798 131.054 36.7989 136.416 39.2897C135.65 34.0269 142.144 28.2851 147.435 32.8913C146.581 27.8226 154.531 24.8448 158.468 29.1189C158.967 23.8524 167.668 23.5495 169.192 28.6774C173.421 23.4692 179.491 25.007 181.017 30.0451C183.739 26.4286 190.469 28.3135 190.63 33.482C195.749 31.096 199.239 33.9417 198.741 38.5768C204.569 37.4791 207.147 42.4249 204.5 46.1953C209.595 45.673 211.168 52.2504 207.229 54.3845C211.321 55.497 214.175 61.8138 208.646 64.0637C209.488 64.4406 210.185 65.0553 210.644 65.8234C211.102 66.5916 211.298 67.4757 211.206 68.3548C211.115 69.2339 210.738 70.0651 210.13 70.7345C209.522 71.404 208.71 71.8789 207.806 72.0946C211.495 73.7617 211.957 78.3544 207.109 79.7076C210.36 82.4397 209.941 88.5294 204.172 88.8913C204.647 89.9808 204.751 91.185 204.468 92.3344C204.183 93.4837 203.527 94.5204 202.591 95.2984C201.653 96.0764 200.484 96.5565 199.245 96.6712C198.008 96.7859 196.764 96.5295 195.688 95.938C195.995 97.0784 195.829 98.2876 195.226 99.3175C194.622 100.347 193.626 101.12 192.443 101.476" stroke="black" stroke-width="1.125" stroke-linecap="round" stroke-linejoin="round"/>
<path d="M151.392 278.712L141.095 272.628C139.939 271.948 139.116 270.86 138.806 269.604C138.497 268.346 138.727 267.023 139.445 265.925C140.164 264.828 141.312 264.045 142.638 263.749C143.963 263.454 145.357 263.67 146.513 264.349L148.097 265.276L149.076 263.772C149.794 262.675 150.942 261.892 152.267 261.597C153.592 261.303 154.986 261.518 156.141 262.198C157.296 262.878 158.118 263.966 158.427 265.222C158.736 266.479 158.506 267.802 157.787 268.898L151.392 278.712Z" stroke="black" stroke-width="1.125" stroke-linejoin="round"/>
</svg>
