<svg width="582" height="501" viewBox="0 0 582 501" fill="none" xmlns="http://www.w3.org/2000/svg">
<path d="M13.4024 386.332C12.145 288.665 -44.2647 97.1301 162.425 26.7981C369.114 -43.5338 544.758 37.5247 577.563 120.796C610.369 204.068 457.238 392.507 250.549 462.839C43.8589 533.171 46.2082 469.604 13.4024 386.332Z" fill="#67B8AF" fill-opacity="0.07"/>
<path d="M228.89 80.6938C210.043 81.1893 195.178 94.7488 195.704 110.976C196.28 129.867 216.9 142.841 237.57 138.591L236.465 126.342C236.225 124.312 236.411 122.257 237.014 120.294C237.617 118.332 238.624 116.501 239.978 114.906C241.332 113.311 243.007 111.983 244.905 110.998C246.803 110.013 248.891 109.391 251.044 109.166L263.849 108.127C262.795 92.4 247.352 80.1959 228.89 80.6938Z" fill="#FEB684"/>
<path fill-rule="evenodd" clip-rule="evenodd" d="M211.05 397.937L364.695 385.733C368.891 385.395 372.773 383.501 375.488 380.466C378.205 377.431 379.532 373.505 379.178 369.551L370.258 270.794C369.899 266.84 367.89 263.181 364.67 260.622C361.452 258.063 357.287 256.812 353.091 257.144L270.998 263.655C269.547 265.74 268.602 266.826 266.423 268.44C264.085 270.125 261.358 271.262 258.461 271.757C255.567 272.251 252.587 272.089 249.772 271.285C246.956 270.48 244.383 269.055 242.267 267.128C241.893 266.78 241.519 266.432 241.146 266.082L215.535 268.11C224.031 296.527 224.923 316.242 225.547 344.397C226.064 352.673 224.862 360.965 222.009 368.805L211.05 397.937ZM300.532 333.665L316.023 340.49L313.24 309.484L299.19 318.703C298.697 315.782 297.046 313.147 294.572 311.327C292.097 309.507 288.986 308.64 285.86 308.897L255.886 311.339C254.255 311.466 252.668 311.897 251.212 312.604C249.759 313.312 248.47 314.286 247.419 315.468C246.365 316.647 245.573 318.014 245.083 319.486C244.595 320.956 244.421 322.505 244.57 324.041L245.768 337.143C245.902 338.68 246.36 340.176 247.11 341.546C247.861 342.915 248.895 344.133 250.148 345.124C251.399 346.115 252.85 346.863 254.41 347.325C255.972 347.785 257.615 347.949 259.245 347.808L289.168 345.46C290.796 345.329 292.383 344.895 293.834 344.185C295.285 343.475 296.571 342.501 297.623 341.322C298.674 340.143 299.468 338.778 299.958 337.308C300.352 336.126 300.547 334.895 300.532 333.661V333.665Z" fill="#FEB684"/>
<path d="M413.131 271.201C413.262 272.281 413.164 273.373 412.843 274.417C412.522 275.46 411.986 276.434 411.266 277.281C410.543 278.129 409.651 278.832 408.64 279.351C407.629 279.873 406.517 280.199 405.372 280.311C404.224 280.425 403.066 280.323 401.962 280.013C400.857 279.701 399.829 279.189 398.936 278.5C398.044 277.812 397.306 276.966 396.763 276.008C396.219 275.05 395.883 274 395.772 272.919L394.382 260.531C394.162 258.372 394.855 256.218 396.31 254.538C397.769 252.859 399.869 251.789 402.159 251.563C404.446 251.336 406.739 251.971 408.533 253.329C410.328 254.687 411.481 256.658 411.741 258.814L413.131 271.201Z" fill="#FEB684"/>
<path d="M316.933 121.913C317.677 123.557 318.24 125.269 318.612 127.021C320.05 124.174 320.899 121.094 321.111 117.947C319.623 119.483 318.23 120.784 316.933 121.913Z" fill="#67B8AF"/>
<path d="M186.544 184.06C186.957 186.198 187.734 188.258 188.847 190.161C192.539 190.161 196.616 189.711 197.622 188.31C197.766 188.072 197.91 187.812 198.054 187.541C196.664 190.123 191.635 187.503 186.544 184.06Z" fill="#67B8AF"/>
<path d="M59.6102 284.58C50.6906 272.512 -6.03935 316.58 2.11189 327.698L3.50202 328.872C15.3004 335.066 66.5634 294.073 59.6102 284.58Z" fill="#67B8AF"/>
<path d="M156.669 440.15C145.012 445.374 181.062 506.666 192.054 497.959C198.631 488.964 165.877 435.993 156.669 440.15Z" fill="#67B8AF"/>
<path d="M46.9971 322.907C46.7724 323.686 46.7079 324.501 46.8075 325.304C47.2878 328.196 51.218 328.331 53.8568 327.653C52.0089 325.573 49.6555 323.946 46.9971 322.907Z" fill="#67B8AF"/>
<path d="M72.46 299.314C74.2824 301.439 76.1527 303.561 77.831 305.508C78.1121 304.75 78.2895 303.959 78.3592 303.159C78.4073 302.48 78.2672 301.798 77.9531 301.186C77.6389 300.572 77.1612 300.048 76.5667 299.659C75.9725 299.271 75.2815 299.037 74.5619 298.976C73.8421 298.916 73.1179 299.033 72.46 299.314Z" fill="#67B8AF"/>
<path d="M159.738 207.751C159.207 207.805 158.704 208.006 158.294 208.329C157.884 208.652 157.585 209.082 157.434 209.565C157.283 210.048 157.288 210.563 157.448 211.044C157.607 211.524 157.914 211.95 158.33 212.266C158.747 212.582 159.253 212.775 159.785 212.82C160.317 212.865 160.851 212.76 161.321 212.519C161.79 212.278 162.172 211.911 162.42 211.464C162.668 211.018 162.77 210.513 162.713 210.012C162.68 209.678 162.576 209.353 162.408 209.057C162.24 208.761 162.01 208.5 161.733 208.289C161.455 208.078 161.136 207.922 160.793 207.83C160.451 207.737 160.092 207.711 159.738 207.751Z" fill="#67B8AF"/>
<path d="M140.556 228.76C140.025 228.814 139.522 229.015 139.112 229.338C138.702 229.66 138.403 230.091 138.252 230.574C138.101 231.057 138.106 231.572 138.265 232.052C138.425 232.533 138.732 232.958 139.148 233.275C139.564 233.591 140.07 233.783 140.603 233.828C141.135 233.873 141.669 233.769 142.138 233.528C142.608 233.286 142.99 232.919 143.238 232.473C143.486 232.027 143.588 231.521 143.531 231.021C143.494 230.688 143.387 230.365 143.217 230.071C143.048 229.777 142.818 229.518 142.542 229.308C142.265 229.098 141.947 228.942 141.607 228.847C141.266 228.753 140.909 228.724 140.556 228.76Z" fill="#67B8AF"/>
<path d="M151.923 256.513C151.392 256.566 150.889 256.767 150.478 257.089C150.068 257.412 149.768 257.842 149.617 258.325C149.466 258.808 149.47 259.323 149.63 259.804C149.789 260.285 150.096 260.71 150.512 261.027C150.928 261.343 151.434 261.536 151.967 261.581C152.499 261.626 153.033 261.522 153.503 261.281C153.972 261.039 154.355 260.672 154.602 260.226C154.85 259.78 154.952 259.274 154.895 258.773C154.858 258.441 154.751 258.119 154.581 257.825C154.412 257.532 154.182 257.272 153.906 257.062C153.63 256.852 153.313 256.696 152.973 256.602C152.633 256.507 152.276 256.477 151.923 256.513Z" fill="#67B8AF"/>
<path d="M126.987 223.969C126.456 224.023 125.953 224.223 125.542 224.546C125.132 224.869 124.832 225.299 124.681 225.782C124.53 226.265 124.535 226.78 124.694 227.261C124.853 227.742 125.16 228.167 125.576 228.483C125.992 228.8 126.498 228.993 127.031 229.038C127.563 229.083 128.098 228.978 128.567 228.737C129.036 228.496 129.419 228.129 129.667 227.683C129.915 227.237 130.016 226.731 129.96 226.23C129.922 225.898 129.816 225.575 129.646 225.282C129.476 224.988 129.247 224.729 128.971 224.519C128.695 224.309 128.377 224.153 128.037 224.058C127.697 223.964 127.34 223.934 126.987 223.969Z" fill="#67B8AF"/>
<path d="M182.567 217.688C182.036 217.741 181.533 217.942 181.122 218.265C180.712 218.587 180.412 219.018 180.261 219.501C180.11 219.984 180.115 220.499 180.274 220.98C180.434 221.461 180.741 221.886 181.158 222.202C181.574 222.519 182.08 222.711 182.613 222.756C183.145 222.801 183.68 222.696 184.149 222.455C184.618 222.213 185 221.846 185.248 221.399C185.496 220.953 185.597 220.447 185.539 219.946C185.502 219.614 185.395 219.292 185.225 218.998C185.055 218.705 184.826 218.446 184.55 218.236C184.274 218.027 183.957 217.87 183.616 217.776C183.276 217.682 182.92 217.652 182.567 217.688Z" fill="#67B8AF"/>
<path d="M166.932 238.298C166.4 238.352 165.898 238.553 165.488 238.876C165.078 239.199 164.778 239.63 164.628 240.113C164.477 240.596 164.482 241.111 164.642 241.592C164.802 242.072 165.109 242.498 165.525 242.814C165.942 243.13 166.448 243.322 166.98 243.367C167.513 243.411 168.047 243.306 168.516 243.065C168.985 242.823 169.368 242.456 169.615 242.01C169.863 241.563 169.964 241.057 169.907 240.557C169.869 240.224 169.762 239.902 169.592 239.608C169.423 239.315 169.193 239.055 168.916 238.845C168.64 238.636 168.323 238.479 167.982 238.385C167.642 238.292 167.284 238.262 166.932 238.298Z" fill="#67B8AF"/>
<path d="M194.987 247.88C194.456 247.933 193.953 248.133 193.543 248.456C193.132 248.779 192.833 249.209 192.681 249.692C192.531 250.176 192.535 250.69 192.694 251.171C192.854 251.652 193.16 252.077 193.576 252.394C193.992 252.71 194.498 252.903 195.031 252.948C195.563 252.993 196.098 252.889 196.567 252.648C197.036 252.406 197.419 252.039 197.667 251.593C197.915 251.147 198.017 250.641 197.96 250.14C197.922 249.808 197.816 249.486 197.646 249.192C197.476 248.898 197.247 248.639 196.971 248.429C196.695 248.219 196.377 248.063 196.037 247.968C195.697 247.874 195.34 247.844 194.987 247.88Z" fill="#67B8AF"/>
<path d="M206.639 204.037C206.108 204.091 205.605 204.291 205.195 204.614C204.784 204.937 204.485 205.367 204.333 205.85C204.182 206.333 204.187 206.848 204.346 207.329C204.506 207.81 204.812 208.235 205.228 208.551C205.644 208.868 206.15 209.061 206.683 209.106C207.215 209.151 207.75 209.046 208.219 208.805C208.688 208.564 209.071 208.197 209.319 207.751C209.567 207.305 209.669 206.799 209.612 206.298C209.579 205.964 209.475 205.639 209.307 205.344C209.139 205.048 208.909 204.787 208.632 204.576C208.355 204.365 208.036 204.209 207.694 204.117C207.351 204.024 206.993 203.997 206.639 204.037Z" fill="#67B8AF"/>
<path d="M231.767 246.793C231.235 246.847 230.732 247.047 230.322 247.37C229.912 247.693 229.612 248.123 229.461 248.606C229.31 249.089 229.314 249.604 229.473 250.085C229.633 250.566 229.94 250.991 230.356 251.307C230.772 251.624 231.278 251.817 231.81 251.862C232.342 251.907 232.877 251.802 233.346 251.561C233.816 251.32 234.198 250.953 234.446 250.507C234.694 250.061 234.796 249.555 234.739 249.054C234.662 248.383 234.307 247.768 233.749 247.344C233.192 246.92 232.479 246.722 231.767 246.793Z" fill="#67B8AF"/>
<path d="M231.864 223.064C232.217 223.029 232.559 222.929 232.871 222.769C233.182 222.609 233.458 222.393 233.681 222.133C233.903 221.872 234.069 221.573 234.169 221.252C234.269 220.931 234.301 220.595 234.263 220.263C234.169 219.605 233.806 219.009 233.252 218.599C232.698 218.19 231.997 218.001 231.297 218.072C230.597 218.142 229.955 218.468 229.505 218.978C229.056 219.489 228.836 220.145 228.892 220.806C228.929 221.138 229.036 221.461 229.205 221.754C229.375 222.048 229.604 222.307 229.88 222.517C230.157 222.727 230.474 222.883 230.814 222.977C231.155 223.071 231.512 223.101 231.864 223.064Z" fill="#67B8AF"/>
<path d="M261.165 252.172C260.635 252.226 260.132 252.426 259.72 252.749C259.31 253.072 259.01 253.502 258.86 253.985C258.709 254.468 258.714 254.983 258.873 255.464C259.032 255.945 259.338 256.37 259.755 256.686C260.17 257.003 260.678 257.196 261.208 257.241C261.742 257.286 262.275 257.181 262.745 256.94C263.215 256.699 263.597 256.332 263.845 255.886C264.092 255.439 264.193 254.934 264.138 254.433C264.1 254.1 263.994 253.778 263.824 253.485C263.655 253.191 263.425 252.932 263.15 252.722C262.872 252.512 262.556 252.355 262.214 252.261C261.876 252.167 261.517 252.137 261.165 252.172Z" fill="#67B8AF"/>
<path d="M264.521 225.237C263.99 225.29 263.487 225.491 263.075 225.814C262.666 226.137 262.365 226.567 262.216 227.05C262.064 227.533 262.069 228.048 262.229 228.529C262.388 229.01 262.696 229.435 263.111 229.752C263.528 230.068 264.033 230.261 264.567 230.306C265.1 230.35 265.633 230.245 266.103 230.004C266.571 229.762 266.955 229.395 267.203 228.948C267.451 228.502 267.552 227.996 267.494 227.495C267.456 227.163 267.349 226.841 267.18 226.547C267.011 226.254 266.781 225.995 266.505 225.785C266.227 225.575 265.911 225.419 265.57 225.325C265.231 225.231 264.872 225.201 264.521 225.237Z" fill="#67B8AF"/>
<path d="M288.497 216.196C288.441 215.695 288.226 215.221 287.885 214.835C287.541 214.448 287.086 214.165 286.573 214.023C286.06 213.88 285.514 213.885 285.004 214.035C284.493 214.185 284.043 214.474 283.707 214.866C283.371 215.258 283.166 215.736 283.118 216.237C283.07 216.739 283.181 217.243 283.437 217.685C283.694 218.127 284.084 218.488 284.556 218.722C285.029 218.955 285.567 219.052 286.098 218.998C286.452 218.962 286.793 218.862 287.104 218.702C287.415 218.542 287.69 218.326 287.913 218.066C288.135 217.805 288.302 217.506 288.403 217.186C288.502 216.865 288.535 216.529 288.497 216.196Z" fill="#67B8AF"/>
<path d="M368.533 74.7717C368.24 71.2672 366.632 67.9757 363.996 65.4892C361.357 63.0026 357.867 61.484 354.149 61.2061C350.431 60.9282 346.731 61.9094 343.71 63.9734C340.69 66.0371 338.552 69.0484 337.677 72.4657C333.345 70.5654 328.565 69.7486 323.801 70.094C319.037 70.4394 314.449 71.9354 310.476 74.438C306.503 76.9405 303.28 80.3649 301.119 84.3818C298.958 88.3986 297.932 92.8722 298.137 97.3717C303.912 95.8962 309.849 95.0464 315.829 94.8394C316.153 96.6909 316.6 98.5209 317.171 100.318C317.7 101.448 318.513 101.538 319.952 99.4585C323.167 95.0753 329.688 101.855 322.062 107.098C325.353 112.467 329.533 117.304 334.447 121.427C340.47 119.599 345.656 115.898 349.159 110.931C352.66 105.964 354.27 100.024 353.727 94.0819C353.628 92.9915 353.459 91.9081 353.221 90.8373C353.567 90.839 353.911 90.8206 354.255 90.7825C356.307 90.6148 358.307 90.0679 360.134 89.1724C361.964 88.2772 363.587 87.051 364.911 85.5643C366.238 84.0776 367.241 82.3593 367.861 80.5073C368.482 78.6557 368.71 76.7065 368.533 74.7717Z" fill="#67B8AF"/>
<path d="M165.3 312.919L165.828 331.262L172.678 325.432C169.691 321.557 167.213 317.357 165.3 312.919Z" fill="#67B8AF"/>
<path d="M209.326 229.167L216.135 238.298L216.519 250.005L209.326 229.167Z" fill="#67B8AF"/>
<path d="M197.575 167.292C198.409 167.148 199.162 166.729 199.698 166.11C200.235 165.49 200.52 164.712 200.502 163.912C200.485 163.113 200.167 162.346 199.604 161.748C199.041 161.15 198.271 160.76 197.431 160.648C198.081 160.201 198.552 159.56 198.768 158.83C198.984 158.099 198.933 157.322 198.623 156.622C198.313 155.922 197.762 155.341 197.059 154.972C196.356 154.604 195.541 154.469 194.747 154.59C195.154 153.953 195.326 153.208 195.238 152.469C195.15 151.73 194.806 151.04 194.258 150.504C193.711 149.969 192.992 149.618 192.212 149.507C191.432 149.396 190.635 149.531 189.945 149.89C190.11 149.132 189.994 148.343 189.617 147.655C189.24 146.968 188.624 146.423 187.873 146.111C187.121 145.799 186.279 145.74 185.486 145.942C184.694 146.145 183.999 146.597 183.517 147.224C183.44 146.41 183.063 145.646 182.452 145.065C181.841 144.484 181.034 144.122 180.17 144.041C179.307 143.961 178.44 144.167 177.721 144.624C177.001 145.081 176.473 145.761 176.228 146.545C175.889 145.841 175.304 145.268 174.571 144.921C173.838 144.574 173.001 144.474 172.199 144.638C171.398 144.802 170.68 145.219 170.165 145.821C169.65 146.423 169.37 147.173 169.371 147.946C168.772 147.461 168.021 147.175 167.233 147.132C166.446 147.089 165.665 147.291 165.01 147.707C164.356 148.123 163.865 148.73 163.613 149.435C163.361 150.14 163.362 150.903 163.615 151.608C162.87 151.346 162.052 151.326 161.293 151.552C160.534 151.777 159.877 152.235 159.426 152.853C158.974 153.471 158.754 154.213 158.801 154.961C158.847 155.71 159.158 156.423 159.683 156.987C158.836 156.943 158.001 157.182 157.324 157.663C156.647 158.143 156.172 158.834 155.982 159.612C155.793 160.391 155.902 161.208 156.289 161.918C156.677 162.629 157.318 163.187 158.1 163.495C157.269 163.647 156.522 164.072 155.992 164.694C155.462 165.316 155.184 166.096 155.207 166.893C155.23 167.691 155.553 168.455 156.118 169.05C156.683 169.644 157.454 170.03 158.293 170.139C157.657 170.594 157.2 171.236 156.996 171.963C156.792 172.69 156.853 173.461 157.167 174.152C157.481 174.844 158.032 175.416 158.732 175.778C159.431 176.141 160.239 176.272 161.027 176.151C160.63 176.791 160.467 177.537 160.563 178.273C160.66 179.008 161.01 179.694 161.561 180.223C162.112 180.753 162.832 181.097 163.611 181.202C164.39 181.307 165.184 181.168 165.87 180.806C165.711 181.563 165.832 182.348 166.213 183.031C166.593 183.713 167.21 184.253 167.961 184.559C168.712 184.865 169.552 184.92 170.34 184.714C171.128 184.508 171.819 184.054 172.295 183.427C172.337 183.991 172.526 184.537 172.847 185.015C173.167 185.494 173.609 185.889 174.131 186.167C174.654 186.445 175.242 186.596 175.842 186.607C176.442 186.618 177.036 186.489 177.57 186.231C178.002 185.733 183.889 178.908 185.964 176.421C180.881 170.999 185.099 167.473 187.834 171.044C189.272 172.988 191.373 172.445 190.134 166.658C191.723 166.007 193.246 165.221 194.684 164.309C195.695 167.969 196.453 171.089 197.08 173.71C197.808 173.53 198.458 173.14 198.939 172.595C199.42 172.049 199.709 171.375 199.763 170.668C199.818 169.96 199.636 169.254 199.244 168.649C198.852 168.044 198.268 167.569 197.575 167.292Z" fill="#67B8AF"/>
<path d="M197.093 173.71C196.472 171.089 195.703 167.971 194.697 164.309C193.259 165.221 191.737 166.007 190.148 166.658C191.396 172.445 189.301 172.976 187.848 171.044C185.143 167.452 180.895 170.999 185.977 176.421C183.915 178.908 178.016 185.733 177.584 186.23C177.049 186.489 176.456 186.618 175.856 186.607C175.256 186.596 174.668 186.445 174.145 186.167C173.622 185.889 173.181 185.493 172.86 185.015C172.54 184.537 172.35 183.991 172.309 183.427C171.832 184.053 171.142 184.508 170.354 184.714C169.565 184.92 168.726 184.865 167.975 184.559C167.224 184.252 166.607 183.713 166.226 183.03C165.846 182.348 165.725 181.563 165.884 180.806C165.197 181.168 164.403 181.307 163.625 181.202C162.846 181.097 162.126 180.753 161.575 180.223C161.024 179.694 160.673 179.008 160.577 178.272C160.48 177.537 160.643 176.791 161.041 176.151C160.253 176.272 159.445 176.141 158.745 175.778C158.046 175.416 157.495 174.844 157.181 174.152C156.866 173.461 156.806 172.69 157.01 171.963C157.214 171.235 157.67 170.593 158.306 170.139C157.467 170.03 156.697 169.644 156.132 169.05C155.567 168.455 155.244 167.691 155.221 166.893C155.198 166.096 155.476 165.316 156.006 164.694C156.536 164.071 157.283 163.646 158.114 163.495C157.332 163.187 156.691 162.628 156.303 161.918C155.915 161.208 155.807 160.391 155.996 159.612C156.185 158.834 156.661 158.143 157.337 157.663C158.015 157.182 158.85 156.943 159.696 156.986C159.171 156.423 158.861 155.71 158.814 154.961C158.768 154.212 158.988 153.47 159.439 152.853C159.891 152.235 160.548 151.777 161.307 151.552C162.066 151.326 162.883 151.346 163.629 151.607C163.383 150.905 163.387 150.146 163.641 149.446C163.895 148.746 164.385 148.143 165.036 147.73C165.687 147.317 166.463 147.115 167.247 147.156C168.031 147.198 168.778 147.479 169.377 147.958C169.376 147.185 169.656 146.435 170.171 145.833C170.686 145.231 171.404 144.813 172.205 144.65C173.007 144.486 173.844 144.586 174.577 144.933C175.31 145.28 175.895 145.853 176.234 146.557C176.479 145.772 177.007 145.093 177.727 144.636C178.446 144.179 179.313 143.973 180.177 144.053C181.04 144.134 181.847 144.496 182.458 145.077C183.069 145.658 183.446 146.421 183.523 147.236C184.005 146.609 184.7 146.157 185.492 145.954C186.285 145.752 187.127 145.811 187.879 146.123C188.631 146.435 189.246 146.98 189.623 147.667C190 148.355 190.116 149.144 189.951 149.902C190.641 149.543 191.438 149.408 192.218 149.519C192.998 149.63 193.717 149.98 194.264 150.516C194.812 151.051 195.156 151.742 195.244 152.481C195.333 153.22 195.16 153.965 194.753 154.602C195.547 154.481 196.362 154.615 197.065 154.984C197.768 155.353 198.319 155.934 198.629 156.633C198.939 157.333 198.99 158.111 198.774 158.842C198.558 159.572 198.087 160.212 197.437 160.66C198.277 160.772 199.047 161.161 199.61 161.759C200.172 162.358 200.491 163.125 200.508 163.924C200.526 164.723 200.241 165.502 199.704 166.122C199.168 166.741 198.416 167.16 197.581 167.304C198.269 167.583 198.849 168.057 199.238 168.66C199.627 169.263 199.808 169.966 199.754 170.67C199.701 171.375 199.415 172.046 198.939 172.59C198.462 173.135 197.817 173.526 197.093 173.71Z" stroke="black" stroke-width="2.625" stroke-linecap="round" stroke-linejoin="round"/>
<path d="M197.67 155.178L210.523 154.185C212.057 154.059 213.603 154.219 215.071 154.659C216.539 155.097 217.901 155.806 219.077 156.742C220.254 157.679 221.222 158.826 221.927 160.117C222.632 161.408 223.058 162.817 223.183 164.264L226.684 203.902" stroke="black" stroke-width="2.625" stroke-linecap="round" stroke-linejoin="round"/>
<path d="M216.995 249.371L218.961 249.235C220.678 249.217 222.355 248.747 223.804 247.88" stroke="black" stroke-width="2.625" stroke-linecap="round" stroke-linejoin="round"/>
<path d="M127.993 256.413L102.194 258.492C99.0983 258.737 96.0263 257.812 93.6528 255.923C91.2794 254.033 89.7991 251.333 89.5364 248.416L82.9649 175.375C82.7046 172.456 83.685 169.559 85.6903 167.322C87.6957 165.084 90.5621 163.688 93.6588 163.442L156.739 158.433" stroke="black" stroke-width="2.625" stroke-linecap="round" stroke-linejoin="round"/>
<path d="M211.05 397.937L364.695 385.733C368.891 385.395 372.773 383.501 375.488 380.466C378.205 377.431 379.532 373.505 379.178 369.551L370.258 270.794C369.899 266.84 367.89 263.181 364.67 260.622C361.452 258.063 357.287 256.812 353.091 257.144L270.998 263.655" stroke="black" stroke-width="2.625" stroke-linecap="round" stroke-linejoin="round"/>
<path d="M215.606 268.083L241.118 266.049" stroke="black" stroke-width="2.625" stroke-linecap="round" stroke-linejoin="round"/>
<path d="M298.377 105.316L250.996 109.159C246.656 109.615 242.686 111.674 239.953 114.884C237.22 118.095 235.949 122.195 236.417 126.287L245.913 229.294" stroke="black" stroke-width="2.625" stroke-linecap="round" stroke-linejoin="round"/>
<path d="M280.152 244.399L423.872 232.693C427.062 232.421 430.092 231.25 432.564 229.33C435.036 227.411 436.835 224.834 437.73 221.935" stroke="black" stroke-width="2.625" stroke-linecap="round" stroke-linejoin="round"/>
<path d="M433.128 157.394L428.859 110.614C428.574 106.505 426.572 102.669 423.291 99.9493C420.008 97.2293 415.716 95.8465 411.356 96.1044L353.476 100.807" stroke="black" stroke-width="2.625" stroke-linecap="round" stroke-linejoin="round"/>
<path d="M380.52 170.999C375.581 178.319 365.175 199.699 359.132 213.573C370.733 217.848 380.51 225.619 386.935 235.676" stroke="black" stroke-width="2.625" stroke-linecap="round" stroke-linejoin="round"/>
<path d="M303.267 194.411C305.021 202.923 307.311 211.33 310.124 219.586C307.485 228.941 306.431 237.257 305.185 242.365" stroke="black" stroke-width="2.625" stroke-linecap="round" stroke-linejoin="round"/>
<path d="M307.869 159.609C304.247 164.872 302.134 170.929 301.732 177.19" stroke="black" stroke-width="2.625" stroke-linecap="round" stroke-linejoin="round"/>
<path d="M359.085 213.619C345.563 222.795 320.002 227.674 310.124 219.586" stroke="black" stroke-width="2.625" stroke-linecap="round" stroke-linejoin="round"/>
<path d="M352.948 217.099C360.162 222.416 365.942 229.26 369.825 237.076" stroke="black" stroke-width="2.625" stroke-linecap="round" stroke-linejoin="round"/>
<path d="M318.645 126.968C320.06 124.133 320.897 121.073 321.111 117.947C319.625 119.483 318.23 120.784 316.933 121.913" stroke="black" stroke-width="2.625" stroke-linecap="round" stroke-linejoin="round"/>
<path d="M373.663 183.112L390.832 210.455C404.114 233.146 431.778 240.283 449.145 206.389C457.341 190.387 461.229 179.632 468.422 168.512C456.659 165.351 445.947 159.408 437.308 151.248C429.324 162.574 422.224 174.431 416.062 186.726C381.296 117.077 377.027 129.358 353.865 128.15C346.798 127.966 339.991 125.6 334.491 121.415" stroke="black" stroke-width="2.625" stroke-linecap="round" stroke-linejoin="round"/>
<path d="M283.846 183.653C290.703 161.687 306.065 151.534 312.809 144.604C315.981 141.736 318.096 137.983 318.837 133.899C319.58 129.815 318.913 125.613 316.934 121.913C304.85 131.947 298.185 123.948 298.185 97.3765" stroke="black" stroke-width="2.625" stroke-linecap="round" stroke-linejoin="round"/>
<path d="M356.785 128.24C347.173 135.521 338.499 143.836 330.936 153.015C329.751 154.406 328.204 155.483 326.445 156.141C324.686 156.799 322.775 157.016 320.899 156.771C319.027 156.525 317.25 155.826 315.748 154.74C314.247 153.655 313.069 152.221 312.331 150.578C311.714 149.22 311.179 147.958 310.701 146.736" stroke="black" stroke-width="2.625" stroke-linecap="round" stroke-linejoin="round"/>
<path d="M416.055 186.726L410.35 198.839" stroke="black" stroke-width="2.625" stroke-linecap="round" stroke-linejoin="round"/>
<path d="M177.577 186.23C170.874 194.33 166.13 193.799 153.505 199.111C127.8 209.914 136.624 253.213 136.624 253.213" stroke="black" stroke-width="2.625" stroke-linecap="round" stroke-linejoin="round"/>
<path d="M197.094 173.71C199.189 182.864 198.999 186.369 197.622 188.262C196.611 189.666 192.539 190.116 188.846 190.116" stroke="black" stroke-width="2.625" stroke-linecap="round" stroke-linejoin="round"/>
<path d="M198.062 187.503C196.72 190.123 191.629 187.503 186.544 184.022C187.505 188.182 188.174 193.165 191.771 193.377C223.653 195.261 227.02 198.666 254.688 243.404" stroke="black" stroke-width="2.625" stroke-linecap="round" stroke-linejoin="round"/>
<path d="M251.284 237.846C252.482 234.682 259.916 220.263 264.233 207.246C273.686 206.287 283.187 208.618 290.944 213.8C287.969 227.088 279.34 247.248 271.904 262.066C270.64 264.57 268.762 266.755 266.424 268.44C264.086 270.125 261.359 271.262 258.462 271.756C255.568 272.251 252.588 272.089 249.773 271.284C246.957 270.48 244.384 269.055 242.269 267.128C229.853 255.622 218.821 242.861 209.373 229.077" stroke="black" stroke-width="2.625" stroke-linecap="round" stroke-linejoin="round"/>
<path d="M209.42 229.077L216.517 250.005" stroke="black" stroke-width="2.625" stroke-linecap="round" stroke-linejoin="round"/>
<path d="M157.008 267.09C171.25 271.378 195.611 269.755 214.65 264.874C217.527 259.54 216.329 238.479 216.329 238.479" stroke="black" stroke-width="2.625" stroke-linecap="round" stroke-linejoin="round"/>
<path d="M156.861 266.049C150.724 274.365 138.663 274.672 133.123 266.003C126.142 255.045 123.149 239.427 121.663 222.071C121.663 222.071 132.531 218.793 137.081 220.077" stroke="black" stroke-width="2.625" stroke-linecap="round" stroke-linejoin="round"/>
<path d="M172.679 325.432L122.04 367.693C118.69 370.471 114.387 372.009 109.926 372.026C105.464 372.04 101.148 370.532 97.776 367.781L47.9562 327.157" stroke="black" stroke-width="2.625" stroke-linecap="round" stroke-linejoin="round"/>
<path d="M114.902 333.62L77.2091 300.129" stroke="black" stroke-width="2.625" stroke-linecap="round" stroke-linejoin="round"/>
<path d="M149.139 221.756C149.139 221.756 157.479 253.44 156.956 267.902C146.81 273.338 138.969 281.914 134.765 292.174C128.64 307.771 107.429 326.75 107.429 326.75" stroke="black" stroke-width="2.625" stroke-linecap="round" stroke-linejoin="round"/>
<path d="M214.647 264.874C224.044 295.021 224.979 315.139 225.626 344.33C226.143 352.606 224.941 360.896 222.088 368.739L200.126 426.953C186.694 425.623 173.783 421.335 162.433 414.434L184.397 355.134C184.821 345.005 181.215 335.092 174.287 327.338C167.429 319.465 163.133 309.889 161.915 299.767" stroke="black" stroke-width="2.625" stroke-linecap="round" stroke-linejoin="round"/>
<path d="M166.549 194.275C166.549 194.275 174.22 202.229 192.443 193.415" stroke="black" stroke-width="2.625" stroke-linecap="round" stroke-linejoin="round"/>
<path d="M125.452 221.032C125.302 214.136 124.483 207.267 123.005 200.512C121.59 195.312 119.564 190.278 116.962 185.504C113.145 178.491 114.384 176.592 120.513 182.974C126.565 190.135 131.55 198.043 135.329 206.477" stroke="black" stroke-width="2.625" stroke-linecap="round" stroke-linejoin="round"/>
<path d="M133.202 202.01C136.247 205.264 138.07 195.34 139.215 193.144C140.797 190.116 142.753 186.819 142.619 196.128C142.581 198.704 142.907 202.818 143.34 206.884" stroke="black" stroke-width="2.625" stroke-linecap="round" stroke-linejoin="round"/>
<path d="M120.127 192.15C118.737 190.704 115.578 187.815 114.66 186.998C110.47 183.219 109.636 184.551 110.111 185.33C111.931 188.336 115.343 192.967 116.935 195.812C119.483 200.419 124.654 209.19 124.942 213.709" stroke="black" stroke-width="2.625" stroke-linecap="round" stroke-linejoin="round"/>
<path d="M116.771 195.54C115.955 194.999 115.28 194.554 114.901 194.32C110.043 191.336 109.53 192.693 110.099 193.368C112.401 196.079 116.582 200.095 118.637 202.677C121.049 205.859 123.136 209.249 124.87 212.802" stroke="black" stroke-width="2.625" stroke-linecap="round" stroke-linejoin="round"/>
<path d="M288.69 212.309C291.263 205.08 294.504 198.077 298.378 191.383C301.657 186.331 305.534 181.646 309.934 177.416C316.395 171.223 315.748 168.783 307.058 173.619C298.194 179.325 290.192 186.136 283.271 193.868" stroke="black" stroke-width="2.625" stroke-linecap="round" stroke-linejoin="round"/>
<path d="M287.303 189.58C282.465 192.979 284.25 181.368 283.797 178.636C283.188 174.972 282.311 170.863 279.192 180.761C278.33 183.469 274.827 191.864 268.223 207.018" stroke="black" stroke-width="2.625" stroke-linecap="round" stroke-linejoin="round"/>
<path d="M304.274 183.427C306.24 182.297 310.557 180.263 311.803 179.677C317.558 176.964 317.935 178.677 317.222 179.315C314.272 181.957 309.073 185.783 306.432 188.308C302.171 192.384 293.676 200.059 291.757 204.762" stroke="black" stroke-width="2.625" stroke-linecap="round" stroke-linejoin="round"/>
<path d="M306.671 188.084C307.725 187.767 308.589 187.498 309.07 187.369C315.217 185.594 315.3 187.319 314.441 187.867C311.069 190.011 305.286 192.982 302.21 195.097C298.57 197.719 295.201 200.654 292.14 203.866" stroke="black" stroke-width="2.625" stroke-linecap="round" stroke-linejoin="round"/>
<path d="M59.6099 284.58C51.0744 273.024 -1.24773 312.89 1.41122 326.087C1.8232 328.131 3.69862 329.961 8.07375 329.401C24.8894 327.255 65.916 293.132 59.6099 284.58Z" stroke="black" stroke-width="2.625" stroke-linecap="round" stroke-linejoin="round"/>
<path d="M59.6101 284.58C62.2463 287.743 71.3099 297.958 77.7854 305.543" stroke="black" stroke-width="2.625" stroke-linecap="round" stroke-linejoin="round"/>
<path d="M194.841 426.321C192.819 433.506 181.471 449.276 190.188 469.485C194.654 479.833 197.237 494.924 191.199 498.721" stroke="black" stroke-width="2.625" stroke-linecap="round" stroke-linejoin="round"/>
<path d="M155.136 441.508C156.571 438.459 161.79 427.334 166.454 416.971" stroke="black" stroke-width="2.625" stroke-linecap="round" stroke-linejoin="round"/>
<path d="M156.669 440.15C145.948 444.955 174.569 494.357 187.697 498.864C191.324 500.11 193.058 497.673 192.914 494.045C192.317 478.951 164.957 436.443 156.669 440.15Z" stroke="black" stroke-width="2.625" stroke-linecap="round" stroke-linejoin="round"/>
<path d="M72.4138 299.314C73.0712 299.033 73.7948 298.916 74.5144 298.976C75.234 299.035 75.9245 299.271 76.5187 299.659C77.113 300.045 77.5904 300.572 77.9043 301.184C78.2185 301.798 78.3583 302.477 78.3105 303.156C77.5169 312.685 58.7349 329.008 50.2905 328.046C47.763 327.755 46.1605 326.071 47.0047 322.864" stroke="black" stroke-width="2.625" stroke-linecap="round" stroke-linejoin="round"/>
<path d="M197.137 410.125L211.854 366.252C214.409 359.396 215.485 352.128 215.019 344.874C212.979 313.464 210.512 289.19 204.517 267.09" stroke="black" stroke-width="2.625" stroke-linecap="round" stroke-linejoin="round"/>
<path d="M168.417 398.252C179.303 406.058 192.488 410.496 206.158 410.954" stroke="black" stroke-width="2.625" stroke-linecap="round" stroke-linejoin="round"/>
<path d="M62.1488 338.727C76.6795 334.342 84.8332 324.434 89.724 311.518" stroke="black" stroke-width="2.625" stroke-linecap="round" stroke-linejoin="round"/>
<path d="M165.301 312.919L124.492 346.999C121.135 349.817 116.801 351.382 112.306 351.398C107.811 351.415 103.463 349.883 100.084 347.089L78.5518 329.28" stroke="black" stroke-width="2.625" stroke-linecap="round" stroke-linejoin="round"/>
<path d="M172.205 279.11C171.583 279.201 170.67 290.593 172.301 295.202C175.419 299.264 179.405 302.668 184.003 305.191C186.633 301.062 189.79 297.251 193.403 293.847C192.923 288.105 192.346 285.078 191.677 279.02C185.221 279.889 178.669 279.92 172.205 279.11Z" stroke="black" stroke-width="2.625" stroke-linecap="round" stroke-linejoin="round"/>
<path d="M145.016 276.807C147.478 276.84 149.895 277.428 152.066 278.524C147.652 280.556 143.194 290.912 143.194 290.912L133.362 295.343" stroke="black" stroke-width="2.625" stroke-linecap="round" stroke-linejoin="round"/>
<path d="M457.009 129.139C464.591 131.397 468.807 135.058 473.69 140.935" stroke="black" stroke-width="2.625" stroke-linecap="round" stroke-linejoin="round"/>
<path d="M455.14 132.49C457.787 135.022 459.844 138.045 461.181 141.367C462.518 144.689 463.104 148.238 462.907 151.786" stroke="black" stroke-width="2.625" stroke-linecap="round" stroke-linejoin="round"/>
<path d="M469.716 136.466C472.658 132.813 475.12 128.836 477.046 124.624C480.585 116.806 482.753 118.976 480.787 126.387C480.259 128.376 479.733 130.094 479.253 131.54C477.868 135.699 476.503 139.899 475.224 144.106C473.866 148.575 464.861 167.473 464.861 167.473C456.422 165.348 447.646 159.564 440.789 154.23C440.933 153.959 444.58 147.634 444.719 147.405C445.462 146.141 445.778 144.693 445.624 143.256C445.47 141.818 444.853 140.459 443.857 139.361C440.39 135.439 435.746 129.594 437.286 128.014C439.674 125.568 447.211 133.841 451.24 134.344C452.678 134.522 453.831 130.411 454.068 128.919C454.503 126.208 456.017 116.985 456.131 116.084C457.175 107.703 460.352 109.123 460.304 116.534C460.256 123.586 460.256 128.15 460.256 128.15" stroke="black" stroke-width="2.625" stroke-linecap="round" stroke-linejoin="round"/>
<path d="M459.647 129.958C459.647 129.958 464.876 114.502 465.208 113.461C467.808 105.374 470.536 107.225 469.236 114.5C467.993 121.463 466.646 129.958 466.646 129.958" stroke="black" stroke-width="2.625" stroke-linecap="round" stroke-linejoin="round"/>
<path d="M465.364 132.445C467.866 127.718 470.075 122.858 471.981 117.89C475.089 109.933 477.374 111.965 475.913 119.202C475.112 123.701 473.975 128.142 472.509 132.49" stroke="black" stroke-width="2.625" stroke-linecap="round" stroke-linejoin="round"/>
<path d="M413.131 271.201C413.262 272.281 413.164 273.373 412.843 274.417C412.522 275.46 411.986 276.434 411.266 277.281C410.543 278.129 409.651 278.832 408.64 279.351C407.629 279.873 406.517 280.199 405.372 280.311C404.224 280.425 403.066 280.323 401.962 280.013C400.857 279.701 399.829 279.189 398.936 278.5C398.044 277.812 397.306 276.966 396.763 276.008C396.219 275.05 395.883 274 395.772 272.919L394.382 260.531C394.162 258.372 394.855 256.218 396.31 254.538C397.769 252.859 399.869 251.789 402.159 251.563C404.446 251.336 406.739 251.971 408.533 253.329C410.328 254.687 411.481 256.658 411.741 258.814L413.131 271.201Z" stroke="black" stroke-width="2.625" stroke-linecap="round" stroke-linejoin="round"/>
<path d="M388.674 267.947L389.344 274.048C389.551 275.924 390.15 277.743 391.103 279.401C392.056 281.059 393.348 282.524 394.902 283.711C396.454 284.899 398.243 285.785 400.159 286.324C402.078 286.86 404.09 287.036 406.079 286.841C408.07 286.643 409.999 286.081 411.758 285.183C413.517 284.282 415.072 283.067 416.333 281.602C417.592 280.137 418.534 278.453 419.103 276.645C419.672 274.837 419.859 272.941 419.652 271.066L418.982 264.965" stroke="black" stroke-width="2.625" stroke-linecap="round" stroke-linejoin="round"/>
<path d="M406.082 286.841L407.376 298.23" stroke="black" stroke-width="2.625" stroke-linecap="round" stroke-linejoin="round"/>
<path d="M400.903 298.864L413.803 297.596" stroke="black" stroke-width="2.625" stroke-linecap="round" stroke-linejoin="round"/>
<path d="M300.532 333.665L316.023 340.49L313.24 309.484L299.19 318.703" stroke="black" stroke-width="2.625" stroke-linecap="round" stroke-linejoin="round"/>
<path d="M285.86 308.898C288.986 308.64 292.097 309.507 294.572 311.327C297.046 313.147 298.697 315.782 299.19 318.703L300.484 332.758C300.628 334.292 300.448 335.838 299.958 337.308C299.468 338.778 298.674 340.143 297.623 341.322C296.571 342.501 295.285 343.475 293.834 344.185C292.383 344.895 290.796 345.329 289.168 345.46L259.245 347.809C257.615 347.949 255.972 347.785 254.41 347.325C252.85 346.863 251.399 346.115 250.148 345.124C248.895 344.133 247.861 342.915 247.11 341.546C246.36 340.176 245.902 338.68 245.768 337.143L244.57 324.041C244.421 322.505 244.595 320.956 245.083 319.486C245.573 318.014 246.365 316.647 247.419 315.468C248.47 314.286 249.759 313.312 251.212 312.604C252.668 311.897 254.255 311.466 255.886 311.339L285.86 308.898Z" stroke="black" stroke-width="2.625" stroke-linecap="round" stroke-linejoin="round"/>
<path d="M368.532 74.7717C368.234 71.2761 366.627 67.9946 363.995 65.5145C361.364 63.0341 357.884 61.517 354.173 61.2345C350.466 60.952 346.77 61.9225 343.753 63.9725C340.732 66.0223 338.586 69.0177 337.697 72.4229C341.634 74.135 345.092 76.6892 347.799 79.8827C350.506 83.0761 352.384 86.8207 353.284 90.8183C355.425 90.7716 357.533 90.3116 359.479 89.4666C361.425 88.6219 363.164 87.41 364.594 85.9064C366.022 84.4027 367.109 82.6387 367.787 80.7237C368.464 78.8086 368.717 76.7828 368.532 74.7717Z" stroke="black" stroke-width="2.625" stroke-linecap="round" stroke-linejoin="round"/>
<path d="M353.717 94.0724C353.113 87.2252 349.685 80.8742 344.168 76.3828C338.653 71.8914 331.487 69.6176 324.211 70.0495C316.936 70.4814 310.13 73.5844 305.254 78.6928C300.381 83.8012 297.823 90.5074 298.137 97.3717C303.912 95.8962 309.849 95.0465 315.829 94.8394C316.153 96.6909 316.6 98.5209 317.171 100.319C317.7 101.448 318.514 101.538 319.952 99.4585C323.167 95.0753 329.688 101.855 322.062 107.098C325.353 112.467 329.533 117.304 334.447 121.427C340.47 119.597 345.657 115.894 349.157 110.925C352.655 105.956 354.265 100.015 353.717 94.0724Z" stroke="black" stroke-width="2.625" stroke-linecap="round" stroke-linejoin="round"/>
<path d="M32.6105 246.615L42.6321 245.664" stroke="black" stroke-width="2.625" stroke-linecap="round" stroke-linejoin="round"/>
<path d="M60.3742 243.947L70.3984 242.999" stroke="black" stroke-width="2.625" stroke-linecap="round" stroke-linejoin="round"/>
<path d="M49.5861 226.997L50.5946 236.445" stroke="black" stroke-width="2.625" stroke-linecap="round" stroke-linejoin="round"/>
<path d="M52.4161 253.168L53.422 262.614" stroke="black" stroke-width="2.625" stroke-linecap="round" stroke-linejoin="round"/>
<path d="M36.7831 233.508L44.5982 239.473" stroke="black" stroke-width="2.625" stroke-linecap="round" stroke-linejoin="round"/>
<path d="M58.4081 250.095L66.2257 256.105" stroke="black" stroke-width="2.625" stroke-linecap="round" stroke-linejoin="round"/>
<path d="M63.4946 230.93L57.1632 238.298" stroke="black" stroke-width="2.625" stroke-linecap="round" stroke-linejoin="round"/>
<path d="M45.8922 251.315L39.5153 258.683" stroke="black" stroke-width="2.625" stroke-linecap="round" stroke-linejoin="round"/>
<path d="M264.809 138.41L258.996 125.031C262.55 120.052 264.268 114.109 263.887 108.118C262.833 92.3952 247.342 80.1864 228.881 80.6843C210.033 81.1798 195.169 94.7393 195.694 110.967C196.217 128.097 213.22 140.361 231.795 139.329C238.448 138.934 244.865 136.848 250.362 133.293L264.809 138.41Z" stroke="black" stroke-width="2.625" stroke-linecap="round" stroke-linejoin="round"/>
<path d="M154.32 131.585C153.433 132.385 152.314 132.92 151.105 133.122C149.896 133.323 148.651 133.182 147.527 132.716C146.403 132.25 145.451 131.481 144.791 130.505C144.131 129.529 143.793 128.391 143.819 127.234C143.846 126.077 144.236 124.953 144.94 124.005C145.644 123.057 146.63 122.327 147.775 121.908C148.919 121.488 150.17 121.398 151.368 121.648C152.567 121.898 153.66 122.478 154.509 123.314C155.644 124.436 156.261 125.937 156.225 127.486C156.19 129.036 155.505 130.51 154.32 131.585Z" stroke="black" stroke-width="2.625" stroke-linecap="round" stroke-linejoin="round"/>
<path d="M410.78 54.4777L412.939 79.1573" stroke="black" stroke-width="2.625" stroke-linecap="round" stroke-linejoin="round"/>
<path d="M424.975 65.7766L398.792 67.8562" stroke="black" stroke-width="2.625" stroke-linecap="round" stroke-linejoin="round"/>
<path d="M53.8554 327.653C52.0303 325.544 49.6749 323.898 47.0033 322.864C42.3527 321.28 37.7905 322.681 32.3715 324.129C21.4526 326.988 9.74766 333.196 3.6058 328.91" stroke="black" stroke-width="2.625" stroke-linecap="round" stroke-linejoin="round"/>
<path d="M165.828 331.269L165.3 312.919" stroke="black" stroke-width="2.625" stroke-linecap="round" stroke-linejoin="round"/>
</svg>
