<svg width="108" height="108" viewBox="0 0 108 108" fill="none" xmlns="http://www.w3.org/2000/svg">
<rect width="108" height="108" rx="54" fill="#C7EEFF"/>
<path d="M38.8652 64.125V54C38.8652 49.972 40.5403 46.109 43.5221 43.2608C46.5038 40.4126 50.5479 38.8125 54.7646 38.8125C58.9814 38.8125 63.0255 40.4126 66.0072 43.2608C68.9889 46.109 70.6641 49.972 70.6641 54V64.125" stroke="black" stroke-width="3" stroke-linecap="round" stroke-linejoin="round"/>
<path d="M70.6641 65.8125C70.6641 66.7076 70.2918 67.566 69.6292 68.199C68.9666 68.8319 68.0679 69.1875 67.1309 69.1875H65.3643C64.4272 69.1875 63.5285 68.8319 62.8659 68.199C62.2033 67.566 61.8311 66.7076 61.8311 65.8125V60.75C61.8311 59.8549 62.2033 58.9965 62.8659 58.3635C63.5285 57.7306 64.4272 57.375 65.3643 57.375H70.6641V65.8125ZM38.8652 65.8125C38.8652 66.7076 39.2375 67.566 39.9001 68.199C40.5627 68.8319 41.4614 69.1875 42.3984 69.1875H44.165C45.1021 69.1875 46.0008 68.8319 46.6634 68.199C47.326 67.566 47.6982 66.7076 47.6982 65.8125V60.75C47.6982 59.8549 47.326 58.9965 46.6634 58.3635C46.0008 57.7306 45.1021 57.375 44.165 57.375H38.8652V65.8125Z" stroke="black" stroke-width="3" stroke-linecap="round" stroke-linejoin="round"/>
</svg>
