<svg width="1440" height="240" viewBox="0 0 1440 240" fill="none" xmlns="http://www.w3.org/2000/svg">
<rect width="1440" height="240" fill="white"/>
<g clip-path="url(#clip0_13_419)">
<path d="M242.735 108.06C242.735 109.79 241.348 111.183 239.625 111.183C237.902 111.183 236.514 109.79 236.514 108.06C236.514 106.33 237.854 104.937 239.625 104.937C241.395 104.985 242.735 106.378 242.735 108.06ZM229.91 114.354C229.91 114.643 229.91 115.123 229.91 115.123C229.91 115.123 228.426 113.201 225.267 113.201C220.051 113.201 215.983 117.189 215.983 122.715C215.983 128.192 220.003 132.228 225.267 132.228C228.474 132.228 229.91 130.258 229.91 130.258V131.075C229.91 131.459 230.197 131.748 230.58 131.748H234.456V113.682C234.456 113.682 230.915 113.682 230.58 113.682C230.197 113.682 229.91 114.018 229.91 114.354ZM229.91 125.934C229.192 126.991 227.756 127.904 226.033 127.904C222.97 127.904 220.625 125.982 220.625 122.715C220.625 119.447 222.97 117.526 226.033 117.526C227.708 117.526 229.24 118.486 229.91 119.495V125.934ZM237.328 113.682H241.922V131.748H237.328V113.682ZM305.955 113.201C302.796 113.201 301.313 115.123 301.313 115.123V104.985H296.719V131.748C296.719 131.748 300.26 131.748 300.595 131.748C300.978 131.748 301.265 131.411 301.265 131.075V130.258C301.265 130.258 302.749 132.228 305.907 132.228C311.124 132.228 315.192 128.192 315.192 122.715C315.192 117.237 311.124 113.201 305.955 113.201ZM305.189 127.856C303.419 127.856 302.031 126.943 301.313 125.886V119.447C302.031 118.486 303.562 117.477 305.189 117.477C308.252 117.477 310.597 119.399 310.597 122.667C310.597 125.934 308.252 127.856 305.189 127.856ZM294.326 121.033V131.796H289.731V121.562C289.731 118.583 288.774 117.381 286.19 117.381C284.802 117.381 283.366 118.102 282.457 119.159V131.748H277.863V113.682H281.5C281.883 113.682 282.17 114.018 282.17 114.354V115.123C283.51 113.73 285.281 113.201 287.051 113.201C289.061 113.201 290.736 113.778 292.076 114.931C293.704 116.276 294.326 118.006 294.326 121.033ZM266.712 113.201C263.553 113.201 262.07 115.123 262.07 115.123V104.985H257.476V131.748C257.476 131.748 261.017 131.748 261.352 131.748C261.735 131.748 262.022 131.411 262.022 131.075V130.258C262.022 130.258 263.506 132.228 266.664 132.228C271.881 132.228 275.948 128.192 275.948 122.715C275.996 117.237 271.928 113.201 266.712 113.201ZM265.946 127.856C264.176 127.856 262.788 126.943 262.07 125.886V119.447C262.788 118.486 264.319 117.477 265.946 117.477C269.009 117.477 271.354 119.399 271.354 122.667C271.354 125.934 269.009 127.856 265.946 127.856ZM253.503 113.201C254.891 113.201 255.609 113.441 255.609 113.441V117.718C255.609 117.718 251.78 116.42 249.388 119.159V131.796H244.793V113.682C244.793 113.682 248.335 113.682 248.67 113.682C249.053 113.682 249.34 114.018 249.34 114.354V115.123C250.201 114.114 252.068 113.201 253.503 113.201ZM205.79 130.114C205.55 129.538 205.311 128.913 205.072 128.384C204.689 127.52 204.306 126.703 203.971 125.934L203.923 125.886C200.621 118.679 197.079 111.375 193.347 104.168L193.203 103.88C192.82 103.159 192.437 102.39 192.054 101.622C191.576 100.757 191.097 99.8438 190.332 98.979C188.8 97.0571 186.599 96 184.254 96C181.861 96 179.707 97.0571 178.128 98.8829C177.41 99.7477 176.884 100.661 176.405 101.526C176.022 102.294 175.639 103.063 175.257 103.784L175.113 104.072C171.428 111.279 167.839 118.583 164.536 125.79L164.489 125.886C164.154 126.655 163.771 127.471 163.388 128.336C163.149 128.865 162.909 129.441 162.67 130.066C162.048 131.844 161.856 133.526 162.096 135.255C162.622 138.859 165.015 141.886 168.317 143.231C169.561 143.76 170.854 144 172.194 144C172.577 144 173.055 143.952 173.438 143.904C175.017 143.712 176.644 143.183 178.224 142.27C180.186 141.165 182.052 139.58 184.158 137.273C186.264 139.58 188.178 141.165 190.092 142.27C191.672 143.183 193.299 143.712 194.878 143.904C195.261 143.952 195.739 144 196.122 144C197.462 144 198.802 143.76 199.999 143.231C203.349 141.886 205.694 138.811 206.22 135.255C206.603 133.574 206.412 131.892 205.79 130.114ZM184.206 132.613C181.622 129.345 179.947 126.27 179.372 123.676C179.133 122.571 179.085 121.61 179.229 120.745C179.324 119.976 179.612 119.303 179.994 118.727C180.904 117.429 182.435 116.613 184.206 116.613C185.977 116.613 187.556 117.381 188.417 118.727C188.8 119.303 189.087 119.976 189.183 120.745C189.327 121.61 189.279 122.619 189.039 123.676C188.465 126.222 186.79 129.297 184.206 132.613ZM203.301 134.871C202.966 137.369 201.291 139.532 198.946 140.492C197.797 140.973 196.553 141.117 195.309 140.973C194.112 140.829 192.916 140.444 191.672 139.724C189.949 138.763 188.226 137.273 186.216 135.063C189.374 131.171 191.289 127.616 192.007 124.444C192.342 122.955 192.389 121.61 192.246 120.36C192.054 119.159 191.624 118.054 190.954 117.093C189.47 114.931 186.982 113.682 184.206 113.682C181.43 113.682 178.942 114.979 177.458 117.093C176.788 118.054 176.357 119.159 176.166 120.36C175.974 121.61 176.022 123.003 176.405 124.444C177.123 127.616 179.085 131.219 182.196 135.111C180.234 137.321 178.463 138.811 176.74 139.772C175.496 140.492 174.299 140.877 173.103 141.021C171.811 141.165 170.566 140.973 169.466 140.541C167.121 139.58 165.446 137.417 165.111 134.919C164.967 133.718 165.063 132.517 165.541 131.171C165.685 130.691 165.924 130.21 166.164 129.634C166.499 128.865 166.881 128.048 167.264 127.231L167.312 127.135C170.614 119.976 174.156 112.673 177.841 105.562L177.984 105.273C178.367 104.553 178.75 103.784 179.133 103.063C179.516 102.294 179.947 101.574 180.473 100.949C181.478 99.7958 182.818 99.1712 184.302 99.1712C185.785 99.1712 187.125 99.7958 188.13 100.949C188.657 101.574 189.087 102.294 189.47 103.063C189.853 103.784 190.236 104.553 190.619 105.273L190.762 105.562C194.399 112.721 197.941 120.024 201.243 127.183V127.231C201.626 128 201.961 128.865 202.344 129.634C202.583 130.21 202.822 130.691 202.966 131.171C203.349 132.42 203.492 133.622 203.301 134.871Z" fill="#999999"/>
</g>
<g clip-path="url(#clip1_13_419)">
<path d="M528.268 125.335L532.326 128.04C531.009 129.98 527.859 133.309 522.412 133.309C515.649 133.309 510.612 128.076 510.612 121.419C510.612 114.335 515.702 109.53 521.843 109.53C528.019 109.53 531.045 114.442 532.024 117.094L532.558 118.447L516.646 125.032C517.856 127.417 519.743 128.628 522.412 128.628C525.082 128.628 526.933 127.311 528.268 125.335ZM515.791 121.045L526.417 116.631C525.83 115.154 524.086 114.104 522.003 114.104C519.351 114.104 515.667 116.453 515.791 121.045Z" fill="#999999"/>
<path d="M502.941 97.4089H508.067V132.223H502.941V97.4089Z" fill="#999999"/>
<path d="M494.86 110.455H499.808V131.6C499.808 140.375 494.629 143.988 488.506 143.988C482.739 143.988 479.269 140.108 477.969 136.957L482.508 135.071C483.327 137.011 485.302 139.307 488.506 139.307C492.44 139.307 494.86 136.868 494.86 132.312V130.603H494.682C493.508 132.027 491.265 133.309 488.417 133.309C482.472 133.309 477.026 128.129 477.026 121.455C477.026 114.745 482.472 109.512 488.417 109.512C491.247 109.512 493.508 110.776 494.682 112.164H494.86V110.455ZM495.216 121.455C495.216 117.254 492.422 114.193 488.862 114.193C485.267 114.193 482.241 117.254 482.241 121.455C482.241 125.602 485.267 128.61 488.862 128.61C492.422 128.628 495.216 125.602 495.216 121.455Z" fill="#999999"/>
<path d="M448.886 121.366C448.886 128.218 443.547 133.255 436.997 133.255C430.447 133.255 425.108 128.2 425.108 121.366C425.108 114.478 430.447 109.459 436.997 109.459C443.547 109.459 448.886 114.478 448.886 121.366ZM443.689 121.366C443.689 117.094 440.592 114.157 436.997 114.157C433.402 114.157 430.305 117.094 430.305 121.366C430.305 125.602 433.402 128.574 436.997 128.574C440.592 128.574 443.689 125.602 443.689 121.366Z" fill="#999999"/>
<path d="M474.855 121.419C474.855 128.272 469.515 133.309 462.965 133.309C456.415 133.309 451.076 128.272 451.076 121.419C451.076 114.531 456.415 109.53 462.965 109.53C469.515 109.53 474.855 114.513 474.855 121.419ZM469.64 121.419C469.64 117.148 466.543 114.211 462.947 114.211C459.352 114.211 456.255 117.148 456.255 121.419C456.255 125.655 459.352 128.628 462.947 128.628C466.56 128.628 469.64 125.637 469.64 121.419Z" fill="#999999"/>
<path d="M405.565 128.094C398.107 128.094 392.269 122.078 392.269 114.62C392.269 107.163 398.107 101.147 405.565 101.147C409.587 101.147 412.524 102.731 414.695 104.76L418.273 101.182C415.247 98.281 411.207 96.074 405.565 96.074C395.348 96.074 386.752 104.404 386.752 114.62C386.752 124.837 395.348 133.166 405.565 133.166C411.082 133.166 415.247 131.351 418.504 127.969C421.85 124.623 422.883 119.924 422.883 116.115C422.883 114.923 422.74 113.695 422.58 112.787H405.565V117.735H417.686C417.33 120.832 416.351 122.95 414.909 124.392C413.165 126.154 410.406 128.094 405.565 128.094Z" fill="#999999"/>
</g>
<g clip-path="url(#clip2_13_419)">
<path d="M664.456 133.606L666.799 128.164C669.331 130.054 672.695 131.036 676.021 131.036C678.478 131.036 680.027 130.091 680.027 128.655C679.989 124.649 665.325 127.786 665.211 117.732C665.174 112.63 669.709 108.699 676.134 108.699C679.952 108.699 683.769 109.644 686.49 111.798L684.298 117.354C681.804 115.767 678.704 114.633 675.756 114.633C673.753 114.633 672.43 115.578 672.43 116.787C672.468 120.718 687.246 118.564 687.397 128.164C687.397 133.38 682.975 137.046 676.626 137.046C671.977 137.046 667.706 135.95 664.456 133.606ZM754.371 126.198C753.199 128.239 751.007 129.638 748.474 129.638C744.733 129.638 741.709 126.614 741.709 122.872C741.709 119.131 744.733 116.107 748.474 116.107C751.007 116.107 753.199 117.506 754.371 119.546L760.834 115.956C758.415 111.647 753.766 108.699 748.474 108.699C740.651 108.699 734.301 115.049 734.301 122.872C734.301 130.696 740.651 137.046 748.474 137.046C753.804 137.046 758.415 134.135 760.834 129.789L754.371 126.198ZM690.648 96.9449H698.736V136.517H690.648V96.9449ZM764.008 96.9449V136.517H772.097V124.649L781.697 136.517H792.052L779.845 122.419L791.145 109.266H781.243L772.097 120.189V96.9449H764.008ZM722.774 126.274C721.602 128.202 719.183 129.638 716.462 129.638C712.72 129.638 709.697 126.614 709.697 122.872C709.697 119.131 712.72 116.107 716.462 116.107C719.183 116.107 721.602 117.619 722.774 119.584V126.274ZM722.774 109.266V112.479C721.451 110.249 718.163 108.699 714.723 108.699C707.618 108.699 702.024 114.973 702.024 122.835C702.024 130.696 707.618 137.046 714.723 137.046C718.163 137.046 721.451 135.496 722.774 133.266V136.479H730.862V109.266H722.774Z" fill="#999999"/>
<path d="M614.452 126.236C614.452 128.995 612.223 131.225 609.463 131.225C606.704 131.225 604.474 128.995 604.474 126.236C604.474 123.477 606.704 121.247 609.463 121.247H614.452V126.236ZM616.947 126.236C616.947 123.477 619.177 121.247 621.936 121.247C624.695 121.247 626.925 123.477 626.925 126.236V138.709C626.925 141.468 624.695 143.698 621.936 143.698C619.177 143.698 616.947 141.468 616.947 138.709V126.236Z" fill="#999999"/>
<path d="M621.936 106.205C619.177 106.205 616.947 103.975 616.947 101.216C616.947 98.4567 619.177 96.2268 621.936 96.2268C624.695 96.2268 626.925 98.4567 626.925 101.216V106.205H621.936ZM621.936 108.737C624.695 108.737 626.925 110.967 626.925 113.726C626.925 116.485 624.695 118.715 621.936 118.715H609.426C606.667 118.715 604.437 116.485 604.437 113.726C604.437 110.967 606.667 108.737 609.426 108.737H621.936Z" fill="#999999"/>
<path d="M641.93 113.726C641.93 110.967 644.16 108.737 646.919 108.737C649.678 108.737 651.908 110.967 651.908 113.726C651.908 116.485 649.678 118.715 646.919 118.715H641.93V113.726ZM639.435 113.726C639.435 116.485 637.205 118.715 634.446 118.715C631.687 118.715 629.457 116.485 629.457 113.726V101.216C629.457 98.4567 631.687 96.2268 634.446 96.2268C637.205 96.2268 639.435 98.4567 639.435 101.216V113.726Z" fill="#999999"/>
<path d="M634.446 133.72C637.205 133.72 639.435 135.95 639.435 138.709C639.435 141.468 637.205 143.698 634.446 143.698C631.687 143.698 629.457 141.468 629.457 138.709V133.72H634.446ZM634.446 131.225C631.687 131.225 629.457 128.995 629.457 126.236C629.457 123.477 631.687 121.247 634.446 121.247H646.956C649.715 121.247 651.945 123.477 651.945 126.236C651.945 128.995 649.715 131.225 646.956 131.225H634.446Z" fill="#999999"/>
</g>
<g clip-path="url(#clip3_13_419)">
<path d="M888.139 140.906C885.47 141.375 882.754 141.516 879.944 141.891L871.373 116.766V142.969C868.704 143.25 866.269 143.625 863.74 144V96H870.859L880.599 123.235V96H888.139V140.906ZM902.891 113.578C905.795 113.578 910.244 113.437 912.913 113.437V120.937C909.588 120.937 905.701 120.937 902.891 121.078V132.234C907.293 131.953 911.696 131.578 916.144 131.437V138.656L895.398 140.297V96H916.144V103.5H902.891V113.578ZM944.009 103.5H936.235V138C933.706 138 931.177 138 928.742 138.094V103.5H920.968V96H944.009L944.009 103.5ZM956.185 113.063H966.441V120.562H956.185V137.578H948.832V96H969.766V103.5H956.185V113.063ZM981.942 131.016C986.204 131.109 990.512 131.438 994.68 131.672V139.078C987.984 138.656 981.287 138.235 974.449 138.094V96H981.942V131.016ZM1001 139.594C1003.39 139.735 1005.92 139.875 1008.36 140.156V96H1001V139.594ZM1041.18 96L1031.68 118.828L1041.18 144C1038.37 143.625 1035.56 143.109 1032.75 142.641L1027.37 128.766L1021.89 141.516C1019.17 141.047 1016.55 140.906 1013.84 140.531L1023.48 118.547L1014.77 96H1022.83L1027.74 108.609L1032.99 96H1041.18V96Z" fill="#999999"/>
</g>
<g clip-path="url(#clip4_13_419)">
<path fill-rule="evenodd" clip-rule="evenodd" d="M1211.46 133.537C1202.2 140.36 1188.76 144 1177.2 144C1160.98 144 1146.39 138.01 1135.34 128.046C1134.47 127.263 1135.25 126.195 1136.29 126.805C1148.21 133.732 1162.95 137.899 1178.17 137.899C1188.44 137.899 1199.73 135.777 1210.12 131.374C1211.68 130.709 1213 132.4 1211.46 133.537Z" fill="#999999"/>
<path fill-rule="evenodd" clip-rule="evenodd" d="M1215.32 129.135C1214.14 127.623 1207.49 128.421 1204.5 128.774C1203.59 128.885 1203.45 128.095 1204.27 127.526C1209.57 123.803 1218.26 124.878 1219.27 126.126C1220.29 127.381 1219.01 136.082 1214.03 140.235C1213.27 140.873 1212.54 140.533 1212.88 139.687C1214 136.9 1216.5 130.653 1215.32 129.135Z" fill="#999999"/>
<path fill-rule="evenodd" clip-rule="evenodd" d="M1204.71 101.242V97.6225C1204.71 97.0747 1205.13 96.7072 1205.62 96.7072H1221.85C1222.37 96.7072 1222.78 97.0816 1222.78 97.6225V100.722C1222.78 101.242 1222.34 101.921 1221.56 102.996L1213.16 114.984C1216.28 114.907 1219.58 115.372 1222.41 116.967C1223.05 117.327 1223.22 117.854 1223.27 118.374V122.236C1223.27 122.763 1222.69 123.38 1222.08 123.061C1217.09 120.447 1210.46 120.163 1204.94 123.089C1204.38 123.394 1203.79 122.784 1203.79 122.257V118.589C1203.79 118 1203.79 116.994 1204.38 116.1L1214.12 102.15H1205.65C1205.13 102.15 1204.71 101.783 1204.71 101.242Z" fill="#999999"/>
<path fill-rule="evenodd" clip-rule="evenodd" d="M1145.53 123.824H1140.6C1140.12 123.789 1139.75 123.436 1139.71 122.985V97.6849C1139.71 97.1787 1140.14 96.7766 1140.67 96.7766H1145.27C1145.75 96.7974 1146.13 97.1648 1146.16 97.6225V100.93H1146.25C1147.45 97.7334 1149.71 96.2427 1152.75 96.2427C1155.84 96.2427 1157.77 97.7334 1159.16 100.93C1160.35 97.7334 1163.07 96.2427 1165.97 96.2427C1168.04 96.2427 1170.31 97.0955 1171.69 99.0091C1173.25 101.138 1172.93 104.23 1172.93 106.941L1172.92 122.909C1172.92 123.415 1172.5 123.824 1171.97 123.824H1167.04C1166.55 123.789 1166.16 123.394 1166.16 122.909V109.499C1166.16 108.432 1166.25 105.769 1166.02 104.757C1165.65 103.058 1164.54 102.58 1163.11 102.58C1161.92 102.58 1160.67 103.377 1160.16 104.653C1159.66 105.929 1159.71 108.064 1159.71 109.499V122.909C1159.71 123.415 1159.28 123.824 1158.76 123.824H1153.83C1153.33 123.789 1152.94 123.394 1152.94 122.909L1152.93 109.499C1152.93 106.677 1153.4 102.524 1149.89 102.524C1146.34 102.524 1146.48 106.573 1146.48 109.499V122.909C1146.48 123.415 1146.06 123.824 1145.53 123.824" fill="#999999"/>
<path fill-rule="evenodd" clip-rule="evenodd" d="M1236.75 96.2427C1244.07 96.2427 1248.04 102.524 1248.04 110.512C1248.04 118.229 1243.66 124.351 1236.75 124.351C1229.56 124.351 1225.64 118.069 1225.64 110.241C1225.64 102.365 1229.61 96.2427 1236.75 96.2427ZM1236.79 101.408C1233.16 101.408 1232.93 106.359 1232.93 109.444C1232.93 112.536 1232.88 119.137 1236.75 119.137C1240.58 119.137 1240.76 113.812 1240.76 110.567C1240.76 108.432 1240.67 105.88 1240.02 103.856C1239.46 102.095 1238.36 101.408 1236.79 101.408Z" fill="#999999"/>
<path fill-rule="evenodd" clip-rule="evenodd" d="M1257.53 123.824H1252.62C1252.13 123.789 1251.73 123.394 1251.73 122.909L1251.72 97.6017C1251.77 97.1371 1252.17 96.7766 1252.67 96.7766H1257.25C1257.68 96.7974 1258.03 97.0886 1258.13 97.4838V101.353H1258.22C1259.6 97.8929 1261.54 96.2427 1264.95 96.2427C1267.16 96.2427 1269.32 97.04 1270.71 99.2241C1272 101.249 1272 104.653 1272 107.1V123.026C1271.94 123.47 1271.53 123.824 1271.05 123.824H1266.1C1265.65 123.789 1265.27 123.456 1265.23 123.026V109.284C1265.23 106.518 1265.54 102.469 1262.14 102.469C1260.94 102.469 1259.83 103.273 1259.28 104.493C1258.59 106.04 1258.5 107.579 1258.5 109.284V122.909C1258.49 123.415 1258.06 123.824 1257.53 123.824" fill="#999999"/>
<path fill-rule="evenodd" clip-rule="evenodd" d="M1191.78 111.739C1191.78 113.659 1191.82 115.261 1190.85 116.967C1190.07 118.353 1188.82 119.206 1187.44 119.206C1185.54 119.206 1184.43 117.764 1184.43 115.635C1184.43 111.434 1188.2 110.671 1191.78 110.671V111.739ZM1196.75 123.754C1196.43 124.046 1195.96 124.066 1195.59 123.872C1193.95 122.513 1193.65 121.882 1192.76 120.586C1190.05 123.345 1188.13 124.17 1184.62 124.17C1180.46 124.17 1177.23 121.612 1177.23 116.488C1177.23 112.488 1179.4 109.763 1182.5 108.432C1185.17 107.253 1188.92 107.045 1191.78 106.719V106.081C1191.78 104.909 1191.87 103.523 1191.17 102.511C1190.58 101.602 1189.42 101.228 1188.4 101.228C1186.52 101.228 1184.85 102.192 1184.44 104.188C1184.36 104.632 1184.03 105.069 1183.58 105.09L1178.8 104.577C1178.39 104.487 1177.94 104.161 1178.06 103.544C1179.16 97.7473 1184.4 96 1189.1 96C1191.5 96 1194.64 96.6379 1196.53 98.4545C1198.93 100.694 1198.7 103.682 1198.7 106.934V114.616C1198.7 116.925 1199.66 117.937 1200.56 119.185C1200.88 119.629 1200.95 120.163 1200.54 120.496C1199.54 121.335 1197.75 122.895 1196.76 123.768L1196.75 123.754" fill="#999999"/>
<path fill-rule="evenodd" clip-rule="evenodd" d="M1127.07 111.739C1127.07 113.659 1127.12 115.261 1126.15 116.967C1125.37 118.353 1124.12 119.206 1122.74 119.206C1120.84 119.206 1119.74 117.764 1119.74 115.635C1119.74 111.434 1123.51 110.671 1127.07 110.671V111.739ZM1132.05 123.754C1131.72 124.046 1131.25 124.066 1130.89 123.872C1129.25 122.513 1128.96 121.882 1128.05 120.586C1125.35 123.345 1123.43 124.17 1119.92 124.17C1115.77 124.17 1112.53 121.612 1112.53 116.488C1112.53 112.488 1114.7 109.763 1117.79 108.432C1120.47 107.253 1124.21 107.045 1127.07 106.719V106.081C1127.07 104.909 1127.16 103.523 1126.48 102.511C1125.87 101.602 1124.72 101.228 1123.71 101.228C1121.83 101.228 1120.15 102.192 1119.74 104.188C1119.65 104.632 1119.33 105.069 1118.88 105.09L1114.09 104.577C1113.69 104.487 1113.25 104.161 1113.36 103.544C1114.46 97.7473 1119.7 96 1124.39 96C1126.8 96 1129.93 96.6379 1131.83 98.4545C1134.23 100.694 1134 103.682 1134 106.934V114.616C1134 116.925 1134.96 117.937 1135.86 119.185C1136.18 119.629 1136.25 120.163 1135.85 120.496C1134.84 121.335 1133.05 122.895 1132.07 123.768L1132.05 123.754" fill="#999999"/>
</g>
<defs>
<clipPath id="clip0_13_419">
<rect width="153.191" height="48" fill="white" transform="translate(162 96)"/>
</clipPath>
<clipPath id="clip1_13_419">
<rect width="146.286" height="48" fill="white" transform="translate(386.539 96)"/>
</clipPath>
<clipPath id="clip2_13_419">
<rect width="188.22" height="48" fill="white" transform="translate(604.172 96)"/>
</clipPath>
<clipPath id="clip3_13_419">
<rect width="177.444" height="48" fill="white" transform="translate(863.74 96)"/>
</clipPath>
<clipPath id="clip4_13_419">
<rect width="159.468" height="48" fill="white" transform="translate(1112.53 96)"/>
</clipPath>
</defs>
</svg>
