<svg width="176" height="32" viewBox="0 0 176 32" fill="none" xmlns="http://www.w3.org/2000/svg">
<g clip-path="url(#clip0_32_815)">
<path opacity="0.1" fill-rule="evenodd" clip-rule="evenodd" d="M0 16C0 7.16344 7.16344 0 16 0C24.8366 0 32 7.16344 32 16C32 24.8366 24.8366 32 16 32C7.16344 32 0 24.8366 0 16Z" fill="white"/>
<path fill-rule="evenodd" clip-rule="evenodd" d="M16.0008 7.4668C13.6833 7.4668 13.3924 7.47693 12.4822 7.51835C11.5737 7.55995 10.9536 7.70378 10.4111 7.9148C9.84981 8.13276 9.37372 8.42432 8.8994 8.89881C8.42473 9.37313 8.13317 9.84922 7.9145 10.4103C7.70294 10.9531 7.55894 11.5733 7.51805 12.4814C7.47734 13.3917 7.46667 13.6827 7.46667 16.0002C7.46667 18.3178 7.47699 18.6077 7.51823 19.5179C7.56001 20.4264 7.70383 21.0465 7.91468 21.5891C8.13282 22.1503 8.42437 22.6264 8.89887 23.1007C9.37301 23.5754 9.8491 23.8677 10.41 24.0856C10.9529 24.2967 11.5732 24.4405 12.4815 24.4821C13.3917 24.5235 13.6824 24.5336 15.9997 24.5336C18.3175 24.5336 18.6074 24.5235 19.5176 24.4821C20.4261 24.4405 21.0469 24.2967 21.5898 24.0856C22.1509 23.8677 22.6263 23.5754 23.1004 23.1007C23.5751 22.6264 23.8667 22.1503 24.0853 21.5893C24.2951 21.0465 24.4391 20.4262 24.4818 19.5181C24.5227 18.6079 24.5333 18.3178 24.5333 16.0002C24.5333 13.6827 24.5227 13.3918 24.4818 12.4816C24.4391 11.5732 24.2951 10.9531 24.0853 10.4105C23.8667 9.84922 23.5751 9.37313 23.1004 8.89881C22.6258 8.42414 22.1511 8.13258 21.5893 7.9148C21.0453 7.70378 20.4249 7.55995 19.5164 7.51835C18.6062 7.47693 18.3164 7.4668 15.9981 7.4668H16.0008ZM15.2353 9.00457C15.4625 9.00421 15.716 9.00457 16.0008 9.00457C18.2792 9.00457 18.5492 9.01274 19.449 9.05363C20.281 9.09168 20.7326 9.2307 21.0334 9.3475C21.4316 9.50217 21.7155 9.68706 22.014 9.98573C22.3127 10.2844 22.4976 10.5688 22.6526 10.9671C22.7694 11.2675 22.9086 11.7191 22.9464 12.5511C22.9873 13.4507 22.9962 13.7209 22.9962 15.9982C22.9962 18.2756 22.9873 18.5458 22.9464 19.4454C22.9084 20.2774 22.7694 20.729 22.6526 21.0294C22.4979 21.4276 22.3127 21.7112 22.014 22.0097C21.7153 22.3084 21.4318 22.4932 21.0334 22.6479C20.7329 22.7652 20.281 22.9039 19.449 22.942C18.5494 22.9828 18.2792 22.9917 16.0008 22.9917C13.7222 22.9917 13.4521 22.9828 12.5526 22.942C11.7205 22.9036 11.269 22.7645 10.968 22.6477C10.5698 22.4931 10.2853 22.3082 9.98666 22.0095C9.68799 21.7108 9.5031 21.4271 9.34808 21.0287C9.23128 20.7282 9.09208 20.2767 9.05421 19.4447C9.01332 18.5451 9.00514 18.2749 9.00514 15.9961C9.00514 13.7173 9.01332 13.4485 9.05421 12.549C9.09226 11.717 9.23128 11.2654 9.34808 10.9646C9.50275 10.5664 9.68799 10.2819 9.98666 9.98324C10.2853 9.68457 10.5698 9.49968 10.968 9.34466C11.2688 9.22732 11.7205 9.08866 12.5526 9.05043C13.3398 9.01488 13.6448 9.00421 15.2353 9.00243V9.00457ZM20.5558 10.4215C19.9905 10.4215 19.5318 10.8796 19.5318 11.4451C19.5318 12.0105 19.9905 12.4691 20.5558 12.4691C21.1212 12.4691 21.5799 12.0105 21.5799 11.4451C21.5799 10.8798 21.1212 10.4215 20.5558 10.4215ZM16.0008 11.6179C13.5807 11.6179 11.6186 13.5801 11.6186 16.0002C11.6186 18.4203 13.5807 20.3816 16.0008 20.3816C18.4209 20.3816 20.3824 18.4203 20.3824 16.0002C20.3824 13.5801 18.4209 11.6179 16.0008 11.6179ZM16.0008 13.1557C17.5717 13.1557 18.8453 14.4292 18.8453 16.0002C18.8453 17.5711 17.5717 18.8447 16.0008 18.8447C14.4298 18.8447 13.1563 17.5711 13.1563 16.0002C13.1563 14.4292 14.4298 13.1557 16.0008 13.1557Z" fill="white"/>
<path opacity="0.1" fill-rule="evenodd" clip-rule="evenodd" d="M48 16C48 7.16344 55.1634 0 64 0C72.8366 0 80 7.16344 80 16C80 24.8366 72.8366 32 64 32C55.1634 32 48 24.8366 48 16Z" fill="white"/>
<path fill-rule="evenodd" clip-rule="evenodd" d="M72.5333 15.9883C72.5333 16.5654 72.4746 17.1417 72.3592 17.7034C72.2467 18.2518 72.08 18.7902 71.8617 19.3049C71.6483 19.8105 71.3837 20.2977 71.0745 20.7521C70.77 21.2036 70.4191 21.6271 70.0337 22.0133C69.6474 22.3977 69.2224 22.7476 68.7711 23.0535C68.3152 23.3605 67.8273 23.6247 67.3215 23.8391C66.806 24.0562 66.2664 24.2227 65.7184 24.335C65.1559 24.4507 64.5776 24.5098 63.9996 24.5098C63.4213 24.5098 62.8429 24.4507 62.2812 24.335C61.7324 24.2227 61.1928 24.0562 60.6778 23.8391C60.1719 23.6247 59.6836 23.3605 59.2277 23.0535C58.7764 22.7476 58.3514 22.3977 57.966 22.0133C57.5801 21.6271 57.2293 21.2036 56.9243 20.7521C56.6167 20.2977 56.3517 19.8105 56.1376 19.3049C55.9192 18.7902 55.7521 18.2518 55.6392 17.7034C55.525 17.1417 55.4667 16.5654 55.4667 15.9883C55.4667 15.4108 55.525 14.8332 55.6392 14.2727C55.7521 13.7243 55.9192 13.1851 56.1376 12.6712C56.3518 12.1653 56.6168 11.6776 56.9243 11.2232C57.2293 10.7714 57.5802 10.3486 57.966 9.96207C58.3515 9.57759 58.7765 9.22852 59.2278 8.92312C59.6836 8.61478 60.172 8.35059 60.6778 8.13587C61.1929 7.91822 61.7324 7.75139 62.2812 7.63989C62.8429 7.52506 63.4213 7.4668 63.9997 7.4668C64.5776 7.4668 65.1559 7.52506 65.7185 7.63989C66.2664 7.75142 66.806 7.91825 67.3215 8.13587C67.8273 8.35056 68.3153 8.61478 68.7711 8.92312C69.2224 9.22852 69.6475 9.57759 70.0337 9.96207C70.4191 10.3486 70.77 10.7714 71.0746 11.2232C71.3837 11.6776 71.6483 12.1653 71.8617 12.6712C72.08 13.1851 72.2467 13.7243 72.3592 14.2727C72.4746 14.8332 72.5333 15.4108 72.5333 15.9883ZM60.8903 9.40618C58.8581 10.3645 57.3413 12.2343 56.8684 14.4879C57.0605 14.4895 60.0973 14.5278 63.5962 13.5995C62.3349 11.3618 60.9874 9.53562 60.8903 9.40618ZM64.2 14.7201C60.4477 15.8418 56.8471 15.7611 56.718 15.7561C56.7159 15.8343 56.7121 15.91 56.7121 15.9883C56.7121 17.8577 57.4184 19.562 58.5793 20.8507C58.5768 20.8469 60.5711 17.3139 64.5038 16.0441C64.5988 16.0124 64.6955 15.9841 64.7913 15.9567C64.6084 15.5431 64.4087 15.1287 64.2 14.7201ZM68.8124 10.5267C67.5293 9.39701 65.8447 8.71176 63.9996 8.71176C63.4075 8.71176 62.8329 8.78333 62.2824 8.91564C62.3916 9.06212 63.7604 10.8754 65.0067 13.1605C67.7565 12.1312 68.7944 10.5533 68.8124 10.5267ZM65.288 17.1625C65.2718 17.1679 65.2556 17.1725 65.2397 17.1783C60.94 18.6751 59.5358 21.6915 59.5206 21.7245C60.7578 22.6852 62.3096 23.2648 63.9996 23.2648C65.0088 23.2648 65.9701 23.0596 66.8448 22.6881C66.7368 22.0523 66.3135 19.8238 65.288 17.1625ZM68.0719 22.0232C69.7082 20.9206 70.8703 19.1697 71.1945 17.1416C71.0445 17.0934 69.0057 16.4489 66.6535 16.8254C67.6093 19.4485 67.9977 21.5847 68.0719 22.0232ZM65.5676 14.2449C65.7368 14.5919 65.9006 14.9451 66.0518 15.3001C66.1056 15.4274 66.1581 15.5522 66.2093 15.677C68.7128 15.3625 71.1792 15.8917 71.2846 15.9133C71.2679 14.1883 70.65 12.6051 69.6275 11.3656C69.6137 11.3851 68.4449 13.0715 65.5676 14.2449Z" fill="white"/>
<path opacity="0.1" fill-rule="evenodd" clip-rule="evenodd" d="M96 16C96 7.16344 103.163 0 112 0C120.837 0 128 7.16344 128 16C128 24.8366 120.837 32 112 32C103.163 32 96 24.8366 96 16Z" fill="white"/>
<path fill-rule="evenodd" clip-rule="evenodd" d="M111.521 13.0051L111.554 13.5587L110.995 13.4909C108.958 13.2311 107.178 12.3498 105.668 10.8696L104.929 10.1352L104.739 10.6776C104.336 11.8865 104.593 13.1633 105.433 14.022C105.88 14.4965 105.779 14.5643 105.007 14.2819C104.739 14.1915 104.504 14.1237 104.481 14.1576C104.403 14.2367 104.672 15.2648 104.884 15.6716C105.175 16.2365 105.768 16.7902 106.417 17.1178L106.966 17.3777L106.317 17.389C105.69 17.389 105.668 17.4003 105.735 17.6376C105.959 18.372 106.843 19.1516 107.828 19.4906L108.521 19.7278L107.917 20.0894C107.022 20.6091 105.97 20.9029 104.918 20.9255C104.414 20.9368 104 20.982 104 21.0159C104 21.1289 105.365 21.7616 106.16 22.0102C108.544 22.7446 111.375 22.4282 113.502 21.1741C115.013 20.2815 116.523 18.5076 117.229 16.7902C117.609 15.875 117.99 14.2028 117.99 13.4006C117.99 12.8808 118.023 12.813 118.65 12.1916C119.019 11.83 119.366 11.4346 119.433 11.3216C119.545 11.1069 119.534 11.1069 118.963 11.299C118.012 11.638 117.878 11.5928 118.348 11.0843C118.695 10.7228 119.109 10.0674 119.109 9.87536C119.109 9.84146 118.941 9.89796 118.751 9.99964C118.549 10.1126 118.102 10.2821 117.766 10.3838L117.161 10.5759L116.613 10.203C116.311 9.99964 115.886 9.77367 115.662 9.70588C115.091 9.5477 114.218 9.57029 113.703 9.75107C112.304 10.2595 111.42 11.5702 111.521 13.0051Z" fill="white"/>
<path opacity="0.1" fill-rule="evenodd" clip-rule="evenodd" d="M144 16C144 7.16344 151.163 0 160 0C168.837 0 176 7.16344 176 16C176 24.8366 168.837 32 160 32C151.163 32 144 24.8366 144 16Z" fill="white"/>
<path fill-rule="evenodd" clip-rule="evenodd" d="M166.668 10.4995C167.402 10.701 167.98 11.2948 168.177 12.0488C168.533 13.4153 168.533 16.2666 168.533 16.2666C168.533 16.2666 168.533 19.1178 168.177 20.4845C167.98 21.2385 167.402 21.8322 166.668 22.0338C165.337 22.4 160 22.4 160 22.4C160 22.4 154.663 22.4 153.332 22.0338C152.598 21.8322 152.019 21.2385 151.823 20.4845C151.467 19.1178 151.467 16.2666 151.467 16.2666C151.467 16.2666 151.467 13.4153 151.823 12.0488C152.019 11.2948 152.598 10.701 153.332 10.4995C154.663 10.1333 160 10.1333 160 10.1333C160 10.1333 165.337 10.1333 166.668 10.4995ZM158.4 13.8666V19.1999L162.667 16.5333L158.4 13.8666Z" fill="white"/>
</g>
<defs>
<clipPath id="clip0_32_815">
<rect width="176" height="32" fill="white"/>
</clipPath>
</defs>
</svg>
