<svg width="12" height="11" viewBox="0 0 12 11" fill="none" xmlns="http://www.w3.org/2000/svg">
<path d="M4.74442 0.715516C5.05441 -0.23853 6.40413 -0.238529 6.71412 0.715518L7.35671 2.69321C7.49534 3.11987 7.89294 3.40874 8.34156 3.40874H10.421C11.4242 3.40874 11.8413 4.69241 11.0297 5.28204L9.34737 6.50432C8.98443 6.76801 8.83256 7.23542 8.9712 7.66208L9.61379 9.63977C9.92377 10.5938 8.83183 11.3872 8.02027 10.7975L6.33794 9.57525C5.975 9.31156 5.48354 9.31156 5.1206 9.57525L3.43828 10.7975C2.62672 11.3872 1.53477 10.5938 1.84476 9.63977L2.48735 7.66208C2.62598 7.23542 2.47411 6.76801 2.11117 6.50432L0.428844 5.28204C-0.382717 4.6924 0.0343718 3.40874 1.03752 3.40874H3.11698C3.5656 3.40874 3.9632 3.11987 4.10183 2.69321L4.74442 0.715516Z" fill="#FFC806"/>
</svg>
