<svg width="96" height="16" viewBox="0 0 96 16" fill="none" xmlns="http://www.w3.org/2000/svg">
<path d="M7.04894 2.92705C7.3483 2.00574 8.6517 2.00574 8.95106 2.92705L9.5716 4.83688C9.70547 5.2489 10.0894 5.52786 10.5227 5.52786H12.5308C13.4995 5.52786 13.9023 6.76748 13.1186 7.33688L11.494 8.51722C11.1435 8.77187 10.9968 9.22323 11.1307 9.63525L11.7512 11.5451C12.0506 12.4664 10.9961 13.2325 10.2124 12.6631L8.58778 11.4828C8.2373 11.2281 7.7627 11.2281 7.41221 11.4828L5.78761 12.6631C5.0039 13.2325 3.94942 12.4664 4.24878 11.5451L4.86932 9.63526C5.00319 9.22323 4.85653 8.77186 4.50604 8.51722L2.88144 7.33688C2.09773 6.76748 2.50051 5.52786 3.46923 5.52786H5.47735C5.91057 5.52786 6.29453 5.2489 6.4284 4.83688L7.04894 2.92705Z" fill="#FFC806"/>
<path d="M27.0489 2.92705C27.3483 2.00574 28.6517 2.00574 28.9511 2.92705L29.5716 4.83688C29.7055 5.2489 30.0894 5.52786 30.5227 5.52786H32.5308C33.4995 5.52786 33.9023 6.76748 33.1186 7.33688L31.494 8.51722C31.1435 8.77187 30.9968 9.22323 31.1307 9.63525L31.7512 11.5451C32.0506 12.4664 30.9961 13.2325 30.2124 12.6631L28.5878 11.4828C28.2373 11.2281 27.7627 11.2281 27.4122 11.4828L25.7876 12.6631C25.0039 13.2325 23.9494 12.4664 24.2488 11.5451L24.8693 9.63526C25.0032 9.22323 24.8565 8.77186 24.506 8.51722L22.8814 7.33688C22.0977 6.76748 22.5005 5.52786 23.4692 5.52786H25.4773C25.9106 5.52786 26.2945 5.2489 26.4284 4.83688L27.0489 2.92705Z" fill="#FFC806"/>
<path d="M47.0489 2.92705C47.3483 2.00574 48.6517 2.00574 48.9511 2.92705L49.5716 4.83688C49.7055 5.2489 50.0894 5.52786 50.5227 5.52786H52.5308C53.4995 5.52786 53.9023 6.76748 53.1186 7.33688L51.494 8.51722C51.1435 8.77187 50.9968 9.22323 51.1307 9.63525L51.7512 11.5451C52.0506 12.4664 50.9961 13.2325 50.2124 12.6631L48.5878 11.4828C48.2373 11.2281 47.7627 11.2281 47.4122 11.4828L45.7876 12.6631C45.0039 13.2325 43.9494 12.4664 44.2488 11.5451L44.8693 9.63526C45.0032 9.22323 44.8565 8.77186 44.506 8.51722L42.8814 7.33688C42.0977 6.76748 42.5005 5.52786 43.4692 5.52786H45.4773C45.9106 5.52786 46.2945 5.2489 46.4284 4.83688L47.0489 2.92705Z" fill="#FFC806"/>
<path d="M67.0489 2.92705C67.3483 2.00574 68.6517 2.00574 68.9511 2.92705L69.5716 4.83688C69.7055 5.2489 70.0894 5.52786 70.5227 5.52786H72.5308C73.4995 5.52786 73.9023 6.76748 73.1186 7.33688L71.494 8.51722C71.1435 8.77187 70.9968 9.22323 71.1307 9.63525L71.7512 11.5451C72.0506 12.4664 70.9961 13.2325 70.2124 12.6631L68.5878 11.4828C68.2373 11.2281 67.7627 11.2281 67.4122 11.4828L65.7876 12.6631C65.0039 13.2325 63.9494 12.4664 64.2488 11.5451L64.8693 9.63526C65.0032 9.22323 64.8565 8.77186 64.506 8.51722L62.8814 7.33688C62.0977 6.76748 62.5005 5.52786 63.4692 5.52786H65.4773C65.9106 5.52786 66.2945 5.2489 66.4284 4.83688L67.0489 2.92705Z" fill="#FFC806"/>
<path d="M87.0489 2.92705C87.3483 2.00574 88.6517 2.00574 88.9511 2.92705L89.5716 4.83688C89.7055 5.2489 90.0894 5.52786 90.5227 5.52786H92.5308C93.4995 5.52786 93.9023 6.76748 93.1186 7.33688L91.494 8.51722C91.1435 8.77187 90.9968 9.22323 91.1307 9.63525L91.7512 11.5451C92.0506 12.4664 90.9961 13.2325 90.2124 12.6631L88.5878 11.4828C88.2373 11.2281 87.7627 11.2281 87.4122 11.4828L85.7876 12.6631C85.0039 13.2325 83.9494 12.4664 84.2488 11.5451L84.8693 9.63526C85.0032 9.22323 84.8565 8.77186 84.506 8.51722L82.8814 7.33688C82.0977 6.76748 82.5005 5.52786 83.4692 5.52786H85.4773C85.9106 5.52786 86.2945 5.2489 86.4284 4.83688L87.0489 2.92705Z" fill="#FFC806"/>
</svg>
